<svg class="animated" id="freepik_stories-architect" xmlns="http://www.w3.org/2000/svg" viewBox="0 0 750 500" version="1.1" xmlns:xlink="http://www.w3.org/1999/xlink" xmlns:svgjs="http://svgjs.com/svgjs"><style>svg#freepik_stories-architect:not(.animated) .animable {opacity: 0;}svg#freepik_stories-architect.animated #freepik--background-complete--inject-312 {animation: 1s 1 forwards cubic-bezier(.36,-0.01,.5,1.38) slideUp;animation-delay: 0s;}svg#freepik_stories-architect.animated #freepik--Plant--inject-312 {animation: 1s 1 forwards cubic-bezier(.36,-0.01,.5,1.38) slideUp;animation-delay: 0s;}svg#freepik_stories-architect.animated #freepik--Desk--inject-312 {animation: 1s 1 forwards cubic-bezier(.36,-0.01,.5,1.38) slideUp;animation-delay: 0s;}svg#freepik_stories-architect.animated #freepik--Model--inject-312 {animation: 1s 1 forwards cubic-bezier(.36,-0.01,.5,1.38) lightSpeedLeft;animation-delay: 0s;}svg#freepik_stories-architect.animated #freepik--Character--inject-312 {animation: 1s 1 forwards cubic-bezier(.36,-0.01,.5,1.38) slideRight;animation-delay: 0s;}svg#freepik_stories-architect.animated #freepik--Plan--inject-312 {animation: 1s 1 forwards cubic-bezier(.36,-0.01,.5,1.38) zoomIn;animation-delay: 0s;}            @keyframes slideUp {                0% {                    opacity: 0;                    transform: translateY(30px);                }                100% {                    opacity: 1;                    transform: inherit;                }            }                    @keyframes lightSpeedLeft {              from {                transform: translate3d(-50%, 0, 0) skewX(20deg);                opacity: 0;              }              60% {                transform: skewX(-10deg);                opacity: 1;              }              80% {                transform: skewX(2deg);              }              to {                opacity: 1;                transform: translate3d(0, 0, 0);              }            }                    @keyframes slideRight {                0% {                    opacity: 0;                    transform: translateX(30px);                }                100% {                    opacity: 1;                    transform: translateX(0);                }            }                    @keyframes zoomIn {                0% {                    opacity: 0;                    transform: scale(0.5);                }                100% {                    opacity: 1;                    transform: scale(1);                }            }        </style><g id="freepik--background-complete--inject-312" style="transform-origin: 388.474px 254.92px 0px;" class="animable"><rect x="665.78" y="34.27" width="8.73" height="187.72" style="fill: rgb(224, 224, 224); transform-origin: 670.145px 128.13px 0px;" id="eli2ny0zn4yd" class="animable"></rect><rect x="539.12" y="35.73" width="125.33" height="186.53" rx="0.13" style="fill: rgb(245, 245, 245); transform-origin: 601.785px 128.995px 0px;" id="elc61i4lud78" class="animable"></rect><path d="M665.78,223.71h-128a.13.13,0,0,1-.13-.12V34.4a.13.13,0,0,1,.13-.13h128a.12.12,0,0,1,.12.13V223.59A.12.12,0,0,1,665.78,223.71Zm-125.08-2.9H662.87a.13.13,0,0,0,.13-.13V37.3a.13.13,0,0,0-.13-.12H540.7a.13.13,0,0,0-.13.12V220.68A.13.13,0,0,0,540.7,220.81Z" style="fill: rgb(235, 235, 235); transform-origin: 601.773px 128.99px 0px;" id="el6lt0a470fth" class="animable"></path><rect x="551.74" y="47.23" width="100.31" height="163.39" rx="0.13" style="fill: rgb(250, 250, 250); transform-origin: 601.895px 128.925px 0px;" id="elzdnp82i93ds" class="animable"></rect><rect x="573.62" y="93.56" width="56.32" height="66.01" rx="0.06" style="fill: rgb(235, 235, 235); transform-origin: 601.78px 126.565px 0px;" id="elf1bhvtvfxw8" class="animable"></rect><path d="M625.49,151.49c.07.21-2.71,1.43-8,.81a19.57,19.57,0,0,1-9-3.59,18.28,18.28,0,0,1-7-11,15.77,15.77,0,0,1,5.34-15,14.09,14.09,0,0,1,4-2.38,10.9,10.9,0,0,1,5.07-.58A8.94,8.94,0,0,1,621,122a6.58,6.58,0,0,1,2,5.9,9.58,9.58,0,0,1-2.78,5.07,18.09,18.09,0,0,1-4.24,3.12A23.19,23.19,0,0,1,605.9,139a20.12,20.12,0,0,1-10.79-2.46,19.65,19.65,0,0,1-7.94-8.23,16.75,16.75,0,0,1-1.42-11.52,17.12,17.12,0,0,1,6.07-9.5,14.91,14.91,0,0,1,5.09-2.57,12.75,12.75,0,0,1,5.73-.18,9.35,9.35,0,0,1,5.21,2.94,8.62,8.62,0,0,1,2,5.56,10.59,10.59,0,0,1-1.36,5.3,14.19,14.19,0,0,1-3.21,3.86,21.68,21.68,0,0,1-8,4.24A20.4,20.4,0,0,1,589,127a17.17,17.17,0,0,1-7.31-2.79,15.84,15.84,0,0,1-7-11.06,13.34,13.34,0,0,1,2.59-9.47A11.33,11.33,0,0,1,582,99.89c1.32-.5,2.07-.48,2.1-.36s-.6.47-1.66,1.18a12.38,12.38,0,0,0-3.72,4,11.81,11.81,0,0,0-1.53,8.09,13.27,13.27,0,0,0,6.21,8.69,15.27,15.27,0,0,0,12.8,1.22,18,18,0,0,0,6.4-3.62,7.86,7.86,0,0,0,3-6,4.31,4.31,0,0,0-3.85-4.26,8.26,8.26,0,0,0-3.69.17,10.62,10.62,0,0,0-3.47,1.82,12.66,12.66,0,0,0-4.38,7,12.2,12.2,0,0,0,1.07,8.37,15.15,15.15,0,0,0,6.06,6.3,15.66,15.66,0,0,0,8.34,1.94,19,19,0,0,0,8.2-2.24,14.32,14.32,0,0,0,3.27-2.31,5.51,5.51,0,0,0,1.66-2.7,2.33,2.33,0,0,0-.67-2.18,4.85,4.85,0,0,0-2.71-1.19,6.7,6.7,0,0,0-3.19.27,10.17,10.17,0,0,0-3,1.63A12.27,12.27,0,0,0,605.4,131a12.41,12.41,0,0,0-.65,6.14,15.81,15.81,0,0,0,5.36,9.51,18.93,18.93,0,0,0,7.72,3.85C622.59,151.64,625.45,151.09,625.49,151.49Z" style="fill: rgb(224, 224, 224); transform-origin: 600.049px 125.969px 0px;" id="el3k5eph6cnjb" class="animable"></path><path d="M369.42,412.17c.51.64,20.57,66.95,20.57,66.95l181.79-19.4-29-69.09S365.61,412.2,367.51,412.19" style="fill: rgb(224, 224, 224); transform-origin: 469.639px 434.875px 0px;" id="eltijk3hw7fm" class="animable"></path><polygon points="303.92 389.24 196.9 394.69 374.23 474.66 492.7 439.1 303.92 389.24 303.92 389.24" style="fill: rgb(245, 245, 245); transform-origin: 344.8px 431.95px 0px;" id="elobgt0vmxmt" class="animable"></polygon><g id="el3lwg9ilmyrm"><rect x="616.72" y="190.9" width="22.3" height="142.33" style="fill: rgb(224, 224, 224); transform-origin: 627.87px 262.065px 0px; transform: rotate(169.06deg);" class="animable"></rect></g><path d="M663.19,341.9q7.6,8.44,18.67,5.79l41.95-135.37a25.39,25.39,0,0,0-18.67-5.78Z" style="fill: rgb(245, 245, 245); transform-origin: 693.5px 277.375px 0px;" id="el395uihgxrhh" class="animable"></path><path d="M704.37,210.39l-39,129.23c-12.34,2.95-15.16-4.69-15.16-4.69l40-128.94C693.83,213,704.37,210.39,704.37,210.39Z" style="fill: rgb(245, 245, 245); transform-origin: 677.291px 273.143px 0px;" id="elevbyndl98d4" class="animable"></path><path d="M662.94,342.48c-.13,0,9.16-30.4,20.75-67.81S704.79,207,704.93,207s-9.15,30.4-20.74,67.82S663.08,342.52,662.94,342.48Z" style="fill: rgb(224, 224, 224); transform-origin: 683.936px 274.74px 0px;" id="elk4lpd2g32g" class="animable"></path><path d="M705.61,207.62a22.84,22.84,0,0,1,2.55,1.08,43.2,43.2,0,0,0,6.28,2.16A44,44,0,0,0,721,212a24,24,0,0,1,2.75.3,11.11,11.11,0,0,1-2.78.07A33.34,33.34,0,0,1,708,209,11.05,11.05,0,0,1,705.61,207.62Z" style="fill: rgb(224, 224, 224); transform-origin: 714.68px 210.023px 0px;" id="elc4fav1vru1m" class="animable"></path><path d="M652.32,352.17q11.58,7.69,23.86,1.21l8.73-173a31,31,0,0,0-23.86-1.21Z" style="fill: rgb(235, 235, 235); transform-origin: 668.615px 266.844px 0px;" id="elw07ivbxs91" class="animable"></path><path d="M661.31,184l-7.09,164.87c-13.72,7.22-19.37-1-19.37-1L643.16,183C649.61,190.23,661.31,184,661.31,184Z" style="fill: rgb(235, 235, 235); transform-origin: 648.08px 267.42px 0px;" id="elmpj2s3euhjm" class="animable"></path><path d="M652.21,352.93c-.14,0,1.7-38.78,4.11-86.58s4.48-86.58,4.63-86.57-1.7,38.77-4.11,86.59S652.35,352.94,652.21,352.93Z" style="fill: rgb(224, 224, 224); transform-origin: 656.58px 266.355px 0px;" id="elz2dlp4hd57f" class="animable"></path><path d="M661.93,180.3c0-.08,1.29.21,3.34.54a51.68,51.68,0,0,0,8.1.68,52.5,52.5,0,0,0,8.1-.62c2.06-.32,3.33-.6,3.35-.52a3.5,3.5,0,0,1-.86.31c-.57.17-1.39.37-2.42.57a41.81,41.81,0,0,1-16.33,0c-1-.22-1.86-.42-2.42-.6A3.74,3.74,0,0,1,661.93,180.3Z" style="fill: rgb(224, 224, 224); transform-origin: 673.375px 181.174px 0px;" id="elgms3z24b0zp" class="animable"></path><polygon points="627.8 382.18 688.02 382.18 702.36 294.1 616.03 294.1 627.8 382.18" style="fill: rgb(224, 224, 224); transform-origin: 659.195px 338.14px 0px;" id="el72xxnbbffc" class="animable"></polygon><g id="elleiabb4vhxh"><rect x="303.88" y="202.52" width="89.83" height="59.35" style="fill: rgb(235, 235, 235); transform-origin: 348.795px 232.195px 0px; transform: rotate(-111.14deg);" class="animable"></rect></g><path d="M314.55,205.36c.07-.13.8.14,1.63.59s1.44.93,1.37,1.06-.8-.14-1.62-.6S314.48,205.49,314.55,205.36Z" style="fill: rgb(250, 250, 250); transform-origin: 316.051px 206.186px 0px;" id="elcu6r7ujukog" class="animable"></path><path d="M314.36,204c.13-.05,6.36,15.72,13.9,35.22s13.54,35.36,13.41,35.41-6.36-15.71-13.9-35.22S314.23,204,314.36,204Z" style="fill: rgb(250, 250, 250); transform-origin: 328.016px 239.314px 0px;" id="elzdd6othm3f" class="animable"></path><path d="M342.17,271.92c.12.08-.19.77-.7,1.54s-1,1.34-1.13,1.26.19-.77.7-1.54S342.05,271.84,342.17,271.92Z" style="fill: rgb(250, 250, 250); transform-origin: 341.254px 273.32px 0px;" id="elii9p5g0sf9m" class="animable"></path><path d="M338.79,196.25c.06.13-5.18,2.33-11.7,4.9s-11.84,4.56-11.89,4.42,5.18-2.32,11.7-4.9S338.74,196.12,338.79,196.25Z" style="fill: rgb(250, 250, 250); transform-origin: 326.994px 200.91px 0px;" id="elno68qi63jr" class="animable"></path><path d="M338,193.94a6.4,6.4,0,0,1,1.14,2.24,6.11,6.11,0,0,1,.66,2.43,6.28,6.28,0,0,1-1.14-2.24A6.11,6.11,0,0,1,338,193.94Z" style="fill: rgb(250, 250, 250); transform-origin: 338.9px 196.275px 0px;" id="elwuuks3286u" class="animable"></path><path d="M336.58,195.9c0-.14,1,0,2.05.31s1.95.68,1.91.81-1,0-2.05-.31S336.54,196,336.58,195.9Z" style="fill: rgb(250, 250, 250); transform-origin: 338.559px 196.457px 0px;" id="elv8nnhjvyg2" class="animable"></path><path d="M380.58,254.41s-.05-.1-.13-.3-.19-.49-.34-.85c-.31-.77-.74-1.87-1.31-3.3L374,237.59c-4.13-10.59-10-25.55-16.8-43.13l.31.14-37.94,14.69h0l.15-.33,23.16,60-.26-.12,27.66-10.58,7.64-2.9,2-.75.7-.25s-.21.1-.65.27l-2,.79-7.57,3-27.69,10.83-.2.07-.07-.19-23.26-60,.14-.33h0l37.95-14.65.23-.09.08.23c6.79,17.67,12.56,32.71,16.64,43.36,2,5.28,3.61,9.47,4.72,12.37.53,1.41.94,2.51,1.23,3.27.13.36.24.63.31.84A1.17,1.17,0,0,1,380.58,254.41Z" style="fill: rgb(250, 250, 250); transform-origin: 349.9px 231.689px 0px;" id="el313se2a8brk" class="animable"></path><path d="M342.63,269.08c-.14,0,3.05-16.77,7.12-37.4s7.48-37.33,7.62-37.31-3,16.78-7.11,37.41S342.77,269.11,342.63,269.08Z" style="fill: rgb(250, 250, 250); transform-origin: 350px 231.725px 0px;" id="elhq6fnk4t6up" class="animable"></path><path d="M319.42,209.05c.08-.12,13.85,9.95,30.73,22.47s30.52,22.77,30.43,22.89-13.84-9.94-30.74-22.47S319.33,209.16,319.42,209.05Z" style="fill: rgb(250, 250, 250); transform-origin: 350px 231.73px 0px;" id="elvijjjlmpver" class="animable"></path><g id="elko9x2mjfjkm"><rect x="325.8" y="185" width="17.03" height="6.62" style="fill: rgb(245, 245, 245); transform-origin: 334.315px 188.31px 0px; transform: rotate(-21.14deg);" class="animable"></rect></g><g id="elx7nctqfdj4g"><rect x="360.27" y="271.26" width="17.03" height="6.62" style="fill: rgb(245, 245, 245); transform-origin: 368.785px 274.57px 0px; transform: rotate(-21.14deg);" class="animable"></rect></g><rect x="53.14" y="108.41" width="242.1" height="7.67" style="fill: rgb(224, 224, 224); transform-origin: 174.19px 112.245px 0px;" id="el12epeoo6b2i" class="animable"></rect><rect x="94.02" y="112.24" width="12.26" height="24.28" style="fill: rgb(224, 224, 224); transform-origin: 100.15px 124.38px 0px;" id="eloctnennj5w" class="animable"></rect><rect x="239.38" y="108.41" width="12.26" height="28.11" style="fill: rgb(224, 224, 224); transform-origin: 245.51px 122.465px 0px;" id="elz4bqgeaegh" class="animable"></rect><g id="ell2egep36lv"><rect x="79.61" y="50.99" width="29.81" height="31.62" style="fill: rgb(235, 235, 235); transform-origin: 94.515px 66.8px 0px; transform: rotate(-0.31deg);" class="animable"></rect></g><g id="elikasnx051o"><rect x="109.28" y="50.83" width="29.81" height="31.62" style="fill: rgb(245, 245, 245); transform-origin: 124.185px 66.64px 0px; transform: rotate(-0.31deg);" class="animable"></rect></g><path d="M79.57,59.8q29.72.26,59.48-.27a.32.32,0,0,0,0-.63q-29.71-.16-59.47.36a.27.27,0,0,0,0,.54Z" style="fill: rgb(224, 224, 224); transform-origin: 109.311px 59.375px 0px;" id="ell45ptcsjsia" class="animable"></path><g id="el46auiqsjoio"><rect x="61.01" y="82.58" width="54.15" height="25.77" style="fill: rgb(235, 235, 235); transform-origin: 88.085px 95.465px 0px; transform: rotate(-0.572939deg);" class="animable"></rect></g><g id="elxn3jbvnaian"><rect x="114.91" y="82.29" width="54.15" height="25.77" style="fill: rgb(245, 245, 245); transform-origin: 141.985px 95.175px 0px; transform: rotate(-0.31deg);" class="animable"></rect></g><path d="M61,89.89c36,.41,72.08,0,108.05-.53a.32.32,0,0,0,0-.63c-36-.19-72.08-.17-108,.62a.27.27,0,0,0,0,.54Z" style="fill: rgb(224, 224, 224); transform-origin: 115.047px 89.3438px 0px;" id="elcpkrqgn3j2g" class="animable"></path><path d="M176.46,31.72s-12.33,9.38-.52,21.79a1.09,1.09,0,0,0,.78.33l107.65-.63s9.2-10.31,1.57-22.19Z" style="fill: rgb(235, 235, 235); transform-origin: 229.896px 42.4297px 0px;" id="el2d2xz9bcxpk" class="animable"></path><path d="M260.58,41.51c0,.12-13.41.22-29.94.22s-29.94-.1-29.94-.22,13.4-.21,29.94-.21S260.58,41.39,260.58,41.51Z" style="fill: rgb(224, 224, 224); transform-origin: 230.639px 41.5156px 0px;" id="el1zwkxfm8nzs" class="animable"></path><path d="M243.84,45.41c0,.12-6.31.22-14.08.22s-14.08-.1-14.08-.22,6.3-.22,14.08-.22S243.84,45.29,243.84,45.41Z" style="fill: rgb(224, 224, 224); transform-origin: 229.76px 45.4102px 0px;" id="el241mehediip" class="animable"></path><path d="M271.59,52.86c-.07,0,.23-1.23.57-3.23a47.14,47.14,0,0,0,.62-7.85,46,46,0,0,0-.77-7.84c-.37-2-.7-3.2-.63-3.22a3.11,3.11,0,0,1,.31.83c.18.54.39,1.33.62,2.32a38.45,38.45,0,0,1,.9,7.9,37.75,37.75,0,0,1-.75,7.92c-.21,1-.41,1.8-.58,2.34A3.4,3.4,0,0,1,271.59,52.86Z" style="fill: rgb(224, 224, 224); transform-origin: 272.293px 41.7891px 0px;" id="el52lbe8ekaxp" class="animable"></path><path d="M279.62,30.88a3.67,3.67,0,0,1,.48.78,8,8,0,0,1,.48,1c.17.38.38.81.55,1.31a22.68,22.68,0,0,1,1,3.58,25.21,25.21,0,0,1,.47,4.53,25.57,25.57,0,0,1-.39,4.53,23.17,23.17,0,0,1-1,3.59c-.16.51-.37.94-.53,1.33a10.14,10.14,0,0,1-.46,1,3.9,3.9,0,0,1-.47.79c-.07,0,.53-1.2,1.17-3.19a25.55,25.55,0,0,0,.86-3.56,28.07,28.07,0,0,0,.36-4.46,27.77,27.77,0,0,0-.43-4.46,26.06,26.06,0,0,0-.92-3.54C280.17,32.07,279.55,30.92,279.62,30.88Z" style="fill: rgb(224, 224, 224); transform-origin: 281.109px 42.0996px 0px;" id="el41iwjw53sad" class="animable"></path><path d="M193.44,53a4,4,0,0,1-.5-.72,8.61,8.61,0,0,1-.5-.9,12.25,12.25,0,0,1-.58-1.24,19.11,19.11,0,0,1-1.05-3.4,21.64,21.64,0,0,1-.42-4.33,21.35,21.35,0,0,1,.54-4.33,18.5,18.5,0,0,1,1.14-3.36,12.83,12.83,0,0,1,.61-1.23,7.9,7.9,0,0,1,.52-.88,3.75,3.75,0,0,1,.52-.7c.08,0-.61,1.08-1.37,2.93a21,21,0,0,0-1,3.33,23.05,23.05,0,0,0-.49,4.24,23.63,23.63,0,0,0,.37,4.26,20.87,20.87,0,0,0,1,3.36C192.85,51.9,193.52,53,193.44,53Z" style="fill: rgb(224, 224, 224); transform-origin: 192.059px 42.4551px 0px;" id="elbdk75bdtbek" class="animable"></path><path d="M181.82,55.63a3.91,3.91,0,0,1-.56-.81c-.17-.27-.36-.61-.56-1s-.45-.86-.65-1.39a23,23,0,0,1-1.23-3.8,24,24,0,0,1-.22-9.74A22.33,22.33,0,0,1,179.67,35a14.33,14.33,0,0,1,.58-1.42,9.74,9.74,0,0,1,.52-1,3.72,3.72,0,0,1,.52-.84c.08,0-.61,1.26-1.33,3.39A25.25,25.25,0,0,0,179,39a25.45,25.45,0,0,0,.21,9.58,24.11,24.11,0,0,0,1.13,3.77C181.15,54.4,181.89,55.59,181.82,55.63Z" style="fill: rgb(224, 224, 224); transform-origin: 180.016px 43.6836px 0px;" id="elwjb5x43wwpc" class="animable"></path><path d="M280.42,86v20.6H240.56V86Z" style="fill: rgb(235, 235, 235); transform-origin: 260.49px 96.3008px 0px;" id="elvj61tzb6vkm" class="animable"></path><path d="M151.68,96.49c0,.18,0,.36,0,.54a11.81,11.81,0,0,0,11.86,11H282.28v-1.49H254.1a10.3,10.3,0,0,1-10.3-10.3h0A10.3,10.3,0,0,1,254.1,86h28.18V83.81l-118.75.4A11.88,11.88,0,0,0,151.68,96.49Z" style="fill: rgb(224, 224, 224); transform-origin: 216.977px 95.9199px 0px;" id="elti520xgkg9k" class="animable"></path><path d="M280.42,96.57c0,.12-8.19.22-18.3.22s-18.31-.1-18.31-.22,8.2-.22,18.31-.22S280.42,96.45,280.42,96.57Z" style="fill: rgb(224, 224, 224); transform-origin: 262.115px 96.5703px 0px;" id="el2ad65vd5ja7" class="animable"></path><path d="M279.85,101.21c0,.12-7.76.22-17.32.22s-17.33-.1-17.33-.22S253,101,262.53,101,279.85,101.09,279.85,101.21Z" style="fill: rgb(224, 224, 224); transform-origin: 262.525px 101.215px 0px;" id="eljhufvx0cxz" class="animable"></path><path d="M280.42,105.46c0,.12-7,.21-15.57.21s-15.57-.09-15.57-.21,7-.22,15.57-.22S280.42,105.34,280.42,105.46Z" style="fill: rgb(224, 224, 224); transform-origin: 264.852px 105.455px 0px;" id="elauzj8mur40m" class="animable"></path><path d="M280.42,92.4c0,.12-8,.22-17.93.22s-17.93-.1-17.93-.22,8-.22,17.93-.22S280.42,92.28,280.42,92.4Z" style="fill: rgb(224, 224, 224); transform-origin: 262.49px 92.4004px 0px;" id="elmfcdx03idp" class="animable"></path><path d="M279.85,88.23c0,.12-7.15.22-16,.22s-16-.1-16-.22,7.14-.22,16-.22S279.85,88.11,279.85,88.23Z" style="fill: rgb(224, 224, 224); transform-origin: 263.852px 88.2305px 0px;" id="ely99wcy8vthr" class="animable"></path><path d="M166.06,84.55a27.63,27.63,0,0,0-2.52,3,15.24,15.24,0,0,0,.21,17.65,26.53,26.53,0,0,0,2.59,2.94,4.35,4.35,0,0,1-.85-.63,13.25,13.25,0,0,1-2-2.12,15.05,15.05,0,0,1-.21-18,14.16,14.16,0,0,1,1.93-2.17A4.83,4.83,0,0,1,166.06,84.55Z" style="fill: rgb(245, 245, 245); transform-origin: 163.369px 96.3457px 0px;" id="elb92vwge81na" class="animable"></path><path d="M162.05,84.11a27.63,27.63,0,0,0-2.52,3,15.26,15.26,0,0,0,.21,17.66,25.65,25.65,0,0,0,2.59,2.93,4.2,4.2,0,0,1-.86-.63,13.74,13.74,0,0,1-2-2.12,15,15,0,0,1-.21-18,13.64,13.64,0,0,1,1.93-2.17A4.07,4.07,0,0,1,162.05,84.11Z" style="fill: rgb(245, 245, 245); transform-origin: 159.346px 95.9043px 0px;" id="elmsbgokxymu" class="animable"></path><path d="M242.72,84.55a26.89,26.89,0,0,0-2.53,3,15.29,15.29,0,0,0,.21,17.65,24.72,24.72,0,0,0,2.6,2.94,3.9,3.9,0,0,1-.86-.63,12.83,12.83,0,0,1-2-2.12,15,15,0,0,1-.22-18,14.12,14.12,0,0,1,1.94-2.17A4.07,4.07,0,0,1,242.72,84.55Z" style="fill: rgb(245, 245, 245); transform-origin: 240.014px 96.3457px 0px;" id="eldzaeuwykhc" class="animable"></path><path d="M238.7,84.11a27.63,27.63,0,0,0-2.52,3,15.26,15.26,0,0,0,.21,17.66A26.9,26.9,0,0,0,239,107.7a4.55,4.55,0,0,1-.86-.63,13.74,13.74,0,0,1-2-2.12,15.05,15.05,0,0,1-.21-18,14.16,14.16,0,0,1,1.93-2.17A4.41,4.41,0,0,1,238.7,84.11Z" style="fill: rgb(245, 245, 245); transform-origin: 236.023px 95.9043px 0px;" id="elro9c3um8fq" class="animable"></path><path d="M179.57,99.38q0-4.18-.11-8.38a6,6,0,0,0-.29-2.15,2.06,2.06,0,0,0-1.59-1.35c-1.05-.46-2.69.41-3.42,1.62a8,8,0,0,0-.82,4.11,58.57,58.57,0,0,0,.32,6.62,7.63,7.63,0,0,0,.78,3,2.8,2.8,0,0,0,2.55,1.54,2.86,2.86,0,0,0,2.24-1.94A8.24,8.24,0,0,0,179.57,99.38Z" style="fill: rgb(245, 245, 245); transform-origin: 176.459px 95.8828px 0px;" id="elfv7y2691czo" class="animable"></path><path d="M225.68,97c0,.12-8.58.22-19.16.22s-19.17-.1-19.17-.22,8.58-.22,19.17-.22S225.68,96.85,225.68,97Z" style="fill: rgb(245, 245, 245); transform-origin: 206.516px 97px 0px;" id="elfhecxletk5r" class="animable"></path><polygon points="171.62 83.73 171.4 64.2 182.03 64.2 182.4 83.73 171.62 83.73" style="fill: rgb(245, 245, 245); transform-origin: 176.9px 73.965px 0px;" id="eletf7vtfs7zp" class="animable"></polygon><path d="M181.4,67.67a26.9,26.9,0,0,1-4.93.22,27,27,0,0,1-4.94-.22,28.72,28.72,0,0,1,4.94-.21A28.65,28.65,0,0,1,181.4,67.67Z" style="fill: rgb(224, 224, 224); transform-origin: 176.465px 67.6777px 0px;" id="el28g1i69uxw7" class="animable"></path><path d="M181.4,70.69a28,28,0,0,1-4.93.22,28.08,28.08,0,0,1-4.94-.22,28.08,28.08,0,0,1,4.94-.22A28,28,0,0,1,181.4,70.69Z" style="fill: rgb(224, 224, 224); transform-origin: 176.465px 70.6895px 0px;" id="elgjjaethnfx" class="animable"></path><path d="M181.4,73.7a28,28,0,0,1-4.93.22,28.08,28.08,0,0,1-4.94-.22,28.72,28.72,0,0,1,4.94-.21A28.65,28.65,0,0,1,181.4,73.7Z" style="fill: rgb(224, 224, 224); transform-origin: 176.465px 73.7051px 0px;" id="elp3lmuhj9to" class="animable"></path><path d="M181.4,76.72a28.65,28.65,0,0,1-4.93.21,28.72,28.72,0,0,1-4.94-.21,28.08,28.08,0,0,1,4.94-.22A28,28,0,0,1,181.4,76.72Z" style="fill: rgb(224, 224, 224); transform-origin: 176.465px 76.7148px 0px;" id="elqx4ioznbij" class="animable"></path><path d="M181.4,79.73a28,28,0,0,1-4.93.22,28.08,28.08,0,0,1-4.94-.22,28.08,28.08,0,0,1,4.94-.22A28,28,0,0,1,181.4,79.73Z" style="fill: rgb(224, 224, 224); transform-origin: 176.465px 79.7305px 0px;" id="elwzwlz5blz2q" class="animable"></path><path d="M170.84,63.68H288.65c1.45,6.47,1.25,13.59,0,21.11H171.34V83.35h7.17A3.38,3.38,0,0,0,181.89,80V68.29a3.38,3.38,0,0,0-3.38-3.39h-7.67Z" style="fill: rgb(235, 235, 235); transform-origin: 230.252px 74.2344px 0px;" id="elmj8voo5jls" class="animable"></path><path d="M198.69,74.25h2a.54.54,0,0,1,.21,0,.4.4,0,0,1,.21.37.51.51,0,0,1,0,.13c0,.17-.08.33-.13.5a5.54,5.54,0,0,1-1.23,2.23,2.34,2.34,0,0,1-1.68.86h-.23a1.91,1.91,0,0,1-1.34-1,4.43,4.43,0,0,1-.59-2.37,6.14,6.14,0,0,1,.24-1.68,5.47,5.47,0,0,1,1.16-2.28,2.38,2.38,0,0,1,1.77-.94,1.59,1.59,0,0,1,.75.17,2.43,2.43,0,0,1,1.15,1.43.48.48,0,0,1,0,.2.42.42,0,0,1-.06.21.39.39,0,0,1-.36.21l-.13,0a.41.41,0,0,1-.27-.27l0,0a2.58,2.58,0,0,0-.24-.47A1.13,1.13,0,0,0,199,71a1.09,1.09,0,0,0-.65.24,3.45,3.45,0,0,0-1.07,1.54,5.79,5.79,0,0,0-.47,2.22,3.91,3.91,0,0,0,.34,1.74,1.14,1.14,0,0,0,1,.77,1.4,1.4,0,0,0,1-.57,5.15,5.15,0,0,0,1-1.83h-1.41a.48.48,0,0,1-.47-.48.34.34,0,0,1,.05-.14A.43.43,0,0,1,198.69,74.25Z" style="fill: rgb(250, 250, 250); transform-origin: 198.512px 74.2051px 0px;" id="elkgko88g9mbl" class="animable"></path><path d="M205.38,70.41a1.31,1.31,0,0,1,.05.15c.08.28.55,2.72,1.39,7.3a.36.36,0,0,1,0,.1.46.46,0,0,1-.06.22.38.38,0,0,1-.35.21h-.07a.37.37,0,0,1-.32-.29l-.47-2.43h-2.42L202,78.11l0,.08a.51.51,0,0,1-.37.2.42.42,0,0,1-.42-.42.69.69,0,0,1,0-.13c.08-.17.2-.43.36-.8,1.7-3.69,2.71-5.88,3-6.54a.46.46,0,0,1,.41-.3A.48.48,0,0,1,205.38,70.41ZM204.85,72l-1.31,2.76h1.85Z" style="fill: rgb(250, 250, 250); transform-origin: 204.016px 74.2949px 0px;" id="el98beq1eeaeb" class="animable"></path><path d="M212,78.39H208.4a.39.39,0,0,1-.23-.07.63.63,0,0,1-.2-.44h0q0-.22,1-7.27a.78.78,0,0,1,0-.16.4.4,0,0,1,.38-.26.46.46,0,0,1,.2,0,.39.39,0,0,1,.22.37c0,.32-.11,1-.24,2-.41,3.1-.62,4.74-.64,4.91h3a.59.59,0,0,1,.23,0,.41.41,0,0,1,.27.4.68.68,0,0,1,0,.14A.49.49,0,0,1,212,78.39Z" style="fill: rgb(250, 250, 250); transform-origin: 210.182px 74.2852px 0px;" id="elcxyr03xh65w" class="animable"></path><path d="M216.8,70.41l.06.15c.08.28.54,2.72,1.38,7.3a.18.18,0,0,1,0,.1.59.59,0,0,1,0,.22.41.41,0,0,1-.36.21h-.06a.4.4,0,0,1-.33-.29L217,75.67h-2.42l-1.16,2.44,0,.08a.48.48,0,0,1-.36.2.37.37,0,0,1-.23-.07.39.39,0,0,1-.2-.35.35.35,0,0,1,0-.13c.07-.17.19-.43.36-.8,1.69-3.69,2.71-5.88,3-6.54a.44.44,0,0,1,.79-.09ZM216.28,72,215,74.8h1.85Z" style="fill: rgb(250, 250, 250); transform-origin: 215.438px 74.2969px 0px;" id="el0gd7xofw6rxi" class="animable"></path><path d="M222.46,74.6l.64,1.78c.37,1,.55,1.55.55,1.6a.36.36,0,0,1-.07.22.39.39,0,0,1-.35.19.38.38,0,0,1-.35-.28c0-.08,0-.14-.07-.18-.19-.44-.51-1.28-.95-2.5l-2,2.74a.45.45,0,0,1-.37.22.43.43,0,0,1-.22-.06.37.37,0,0,1-.2-.35v-.09a1,1,0,0,1,.21-.34c.68-.87,1.42-1.91,2.24-3.11l-.25-.67c-.75-2-1.13-3.07-1.13-3.14a.54.54,0,0,1,.05-.22.37.37,0,0,1,.34-.21.43.43,0,0,1,.4.24l1.19,3.19,2.36-3.22a.47.47,0,0,1,.38-.2.45.45,0,0,1,.2,0,.42.42,0,0,1,.2.38.51.51,0,0,1,0,.2Z" style="fill: rgb(250, 250, 250); transform-origin: 222.17px 74.2949px 0px;" id="el786t38fud7o" class="animable"></path><path d="M231.25,70.23a.34.34,0,0,1,.19,0,.4.4,0,0,1,.23.36q-.87,6.89-1,7.44A4.54,4.54,0,0,1,230,80a2.77,2.77,0,0,1-2.36,1.16,2.84,2.84,0,0,1-1.14-.3,2.59,2.59,0,0,1-1.25-1.1.49.49,0,0,1,0-.21.41.41,0,0,1,.05-.21.41.41,0,0,1,.69,0,2.28,2.28,0,0,0,1.82,1,1.79,1.79,0,0,0,1.41-.72,3.86,3.86,0,0,0,.78-2.23,2.3,2.3,0,0,1-.52.56,2.19,2.19,0,0,1-1.28.41h-.23a1.9,1.9,0,0,1-1.35-1,4.34,4.34,0,0,1-.59-2.37c0-.43,0-.87.06-1.33a29.9,29.9,0,0,1,.48-3.06.53.53,0,0,1,0-.12.39.39,0,0,1,.38-.29.42.42,0,0,1,.21.06.37.37,0,0,1,.21.33,14.81,14.81,0,0,1-.19,1.62,21.63,21.63,0,0,0-.28,2.48,4.94,4.94,0,0,0,.31,1.92q.38.87,1,.87l.15,0a1.92,1.92,0,0,0,1.06-.85,5.25,5.25,0,0,0,.88-2l.54-4a.41.41,0,0,1,0-.18A.39.39,0,0,1,231.25,70.23Z" style="fill: rgb(250, 250, 250); transform-origin: 228.455px 75.6777px 0px;" id="el92acr443bu" class="animable"></path><path d="M284.22,85.06c-.12,0-.22-4.84-.22-10.82s.1-10.83.22-10.83.22,4.85.22,10.83S284.34,85.06,284.22,85.06Z" style="fill: rgb(245, 245, 245); transform-origin: 284.221px 74.2344px 0px;" id="elq1kzyjbvr2" class="animable"></path><path d="M187.82,85.06c-.12,0-.22-4.84-.22-10.82s.1-10.83.22-10.83.22,4.85.22,10.83S187.94,85.06,187.82,85.06Z" style="fill: rgb(224, 224, 224); transform-origin: 187.82px 74.2344px 0px;" id="elj689kcwsxhs" class="animable"></path><path d="M286.29,85.06c-.12,0-.22-4.84-.22-10.82s.1-10.83.22-10.83.22,4.85.22,10.83S286.41,85.06,286.29,85.06Z" style="fill: rgb(245, 245, 245); transform-origin: 286.291px 74.2344px 0px;" id="elj8p2o7b3vfe" class="animable"></path><path d="M185.89,85.06c-.12,0-.22-4.84-.22-10.82s.1-10.83.22-10.83.21,4.85.21,10.83S186,85.06,185.89,85.06Z" style="fill: rgb(224, 224, 224); transform-origin: 185.887px 74.2344px 0px;" id="elt5nq3t2m89h" class="animable"></path><path d="M255.66,67l0,0,12.45,10,.11.09-.14,0-1.65.44L255.89,80.3h0l-9.53-4-2.69-1.15-.71-.32-.19-.08-.06,0,.07,0,.18.08.72.29,2.71,1.12,9.55,4h0l10.51-2.77L268,77l0,.13L255.57,67v0" style="fill: rgb(224, 224, 224); transform-origin: 255.465px 73.6504px 0px;" id="elyoct47zgc8q" class="animable"></path><polygon points="266.96 75.42 267.64 76.06 268.55 75.86 268.16 76.71 268.63 77.51 267.7 77.39 267.08 78.09 266.9 77.17 266.05 76.8 266.87 76.35 266.96 75.42" style="fill: rgb(224, 224, 224); transform-origin: 267.34px 76.755px 0px;" id="el7e8qfti1d3l" class="animable"></polygon><polygon points="255.02 79.38 255.48 79.77 256.06 79.6 255.84 80.16 256.18 80.67 255.57 80.63 255.2 81.1 255.05 80.51 254.49 80.3 255 79.98 255.02 79.38" style="fill: rgb(224, 224, 224); transform-origin: 255.335px 80.24px 0px;" id="elvwdag83e1gr" class="animable"></polygon><polygon points="241.83 73.97 242.57 74.01 243.02 73.43 243.21 74.15 243.9 74.4 243.28 74.8 243.25 75.54 242.68 75.07 241.97 75.27 242.24 74.58 241.83 73.97" style="fill: rgb(224, 224, 224); transform-origin: 242.865px 74.485px 0px;" id="eli5wz9bbwkff" class="animable"></polygon><polygon points="272.55 67.14 273.29 67.18 273.74 66.6 273.93 67.32 274.62 67.57 274 67.97 273.97 68.71 273.4 68.23 272.69 68.44 272.96 67.75 272.55 67.14" style="fill: rgb(224, 224, 224); transform-origin: 273.585px 67.655px 0px;" id="eldqgzrk5uspj" class="animable"></polygon><polygon points="255.05 66.65 255.53 66.68 255.82 66.31 255.93 66.76 256.38 66.93 255.98 67.18 255.96 67.65 255.6 67.35 255.14 67.48 255.32 67.04 255.05 66.65" style="fill: rgb(224, 224, 224); transform-origin: 255.715px 66.98px 0px;" id="eltqy2btlt15l" class="animable"></polygon><path d="M273.58,67.65s-4-.08-9-.3-9-.42-9-.47,4,.09,9,.3S273.59,67.6,273.58,67.65Z" style="fill: rgb(224, 224, 224); transform-origin: 264.578px 67.2578px 0px;" id="elcsrzy3waq45" class="animable"></path><path d="M278.11,63.5H158.63c-1.57-3.55-1.95-6.92,0-10H278.11A11.54,11.54,0,0,1,278.11,63.5Z" style="fill: rgb(224, 224, 224); transform-origin: 218.277px 58.5px 0px;" id="el0w47ebliu7n" class="animable"></path><rect x="183.37" y="56.4" width="64.73" height="3.62" style="fill: rgb(235, 235, 235); transform-origin: 215.735px 58.21px 0px;" id="elht4ffiip58m" class="animable"></rect><path d="M163.21,63.55a3.48,3.48,0,0,1-.94-1.2,8.7,8.7,0,0,1-1.09-3.53,8.61,8.61,0,0,1,.46-3.66,3.32,3.32,0,0,1,.71-1.35,10.47,10.47,0,0,1-.42,1.44,10.08,10.08,0,0,0-.32,3.53,10.56,10.56,0,0,0,.93,3.43A12.08,12.08,0,0,1,163.21,63.55Z" style="fill: rgb(224, 224, 224); transform-origin: 162.178px 58.6797px 0px;" id="el82sl7ie7sm6" class="animable"></path><path d="M165.8,63.55s-.47-.38-1-1.2a8.76,8.76,0,0,1-.63-7.19,3.4,3.4,0,0,1,.72-1.35,11.72,11.72,0,0,1-.43,1.44,10.35,10.35,0,0,0-.31,3.53,10.08,10.08,0,0,0,.93,3.43A12.08,12.08,0,0,1,165.8,63.55Z" style="fill: rgb(224, 224, 224); transform-origin: 164.738px 58.6797px 0px;" id="ele5wewi29ubk" class="animable"></path><path d="M273.27,63.32a19.88,19.88,0,0,0,.84-4.86,20,20,0,0,0-.78-4.87,8.66,8.66,0,0,1,1.22,4.87A8.64,8.64,0,0,1,273.27,63.32Z" style="fill: rgb(245, 245, 245); transform-origin: 273.916px 58.4551px 0px;" id="elwry6yv0co6o" class="animable"></path><path d="M271.05,63.3c-.13,0,.37-2.13.36-4.76s-.5-4.74-.37-4.77a11.63,11.63,0,0,1,.8,4.77A11.46,11.46,0,0,1,271.05,63.3Z" style="fill: rgb(245, 245, 245); transform-origin: 271.434px 58.5352px 0px;" id="elcttvflywbrw" class="animable"></path></g><g id="freepik--Plant--inject-312" style="transform-origin: 637.689px 321.744px 0px;" class="animable"><polygon points="610.38 339.85 616.82 382.14 654.21 382.14 662.88 340.46 610.38 339.85" style="fill: rgb(14, 144, 142); transform-origin: 636.63px 360.995px 0px;" id="elgpu1i5fxkwi" class="animable"></polygon><path d="M657.66,367c0,.12-9.59.22-21.4.22s-21.4-.1-21.4-.22,9.58-.22,21.4-.22S657.66,366.84,657.66,367Z" style="fill: rgb(250, 250, 250); transform-origin: 636.26px 367px 0px;" id="elazah5gph2tu" class="animable"></path><path d="M657.8,364.88c0,.12-9.64.22-21.54.22s-21.54-.1-21.54-.22,9.64-.22,21.54-.22S657.8,364.76,657.8,364.88Z" style="fill: rgb(250, 250, 250); transform-origin: 636.26px 364.881px 0px;" id="elqxrjik8jvu" class="animable"></path><path d="M657.73,362.53c0,.12-9.65.22-21.54.22s-21.55-.1-21.55-.22,9.65-.22,21.55-.22S657.73,362.41,657.73,362.53Z" style="fill: rgb(250, 250, 250); transform-origin: 636.186px 362.529px 0px;" id="el88ygpqw3fz3" class="animable"></path><path d="M621.11,379.73A66.29,66.29,0,0,1,619.25,369a66.29,66.29,0,0,1,1.86,10.72Z" style="fill: rgb(250, 250, 250); transform-origin: 620.18px 374.365px 0px;" id="elkt8xc9xd0i" class="animable"></path><path d="M623.65,379.28a43.28,43.28,0,0,1-.46-5.19,40,40,0,0,1-.24-5.21,26.22,26.22,0,0,1,.68,5.18A24.44,24.44,0,0,1,623.65,379.28Z" style="fill: rgb(250, 250, 250); transform-origin: 623.361px 374.08px 0px;" id="elxgfqueyfjfj" class="animable"></path><path d="M628.29,379.28a25.36,25.36,0,0,1-1-5.33,26.11,26.11,0,0,1-.29-5.4,45.28,45.28,0,0,1,.72,5.35A46.53,46.53,0,0,1,628.29,379.28Z" style="fill: rgb(250, 250, 250); transform-origin: 627.629px 373.916px 0px;" id="elrj3xmhckkx" class="animable"></path><path d="M631.54,379.5a27.07,27.07,0,0,1-.51-5.41,26.48,26.48,0,0,1,.16-5.43,43.22,43.22,0,0,1,.27,5.42A43.74,43.74,0,0,1,631.54,379.5Z" style="fill: rgb(250, 250, 250); transform-origin: 631.275px 374.08px 0px;" id="eldmwwzxiizz" class="animable"></path><path d="M637.31,379.28a29.15,29.15,0,0,1-.4-5.13A31.08,31.08,0,0,1,637,369a31.39,31.39,0,0,1,.39,5.14A30.35,30.35,0,0,1,637.31,379.28Z" style="fill: rgb(250, 250, 250); transform-origin: 637.152px 374.141px 0px;" id="el4yslz1mkkfi" class="animable"></path><path d="M641.51,379.51a65.8,65.8,0,0,1,.09-10.63,62.91,62.91,0,0,1-.09,10.63Z" style="fill: rgb(250, 250, 250); transform-origin: 641.561px 374.195px 0px;" id="elz2ytevun7xk" class="animable"></path><path d="M645.46,378.94a71.87,71.87,0,0,1,1.07-11.07,71.55,71.55,0,0,1-1.07,11.07Z" style="fill: rgb(250, 250, 250); transform-origin: 645.996px 373.406px 0px;" id="elysqquh2iv79" class="animable"></path><path d="M650.55,378.39a18.51,18.51,0,0,1,.62-4.73,19.28,19.28,0,0,1,1.39-4.56,39.86,39.86,0,0,1-1,4.66A45.64,45.64,0,0,1,650.55,378.39Z" style="fill: rgb(250, 250, 250); transform-origin: 651.555px 373.746px 0px;" id="elhgjgbryo5fi" class="animable"></path><path d="M606.09,331.48v7.91a3.12,3.12,0,0,0,3.11,3.12h54.15a3.12,3.12,0,0,0,3.11-3.12v-7.91Z" style="fill: rgb(14, 144, 142); transform-origin: 636.275px 336.996px 0px;" id="el5y3q7fe8wag" class="animable"></path><g id="elsiplag2uhus"><g style="opacity: 0.4; transform-origin: 636.62px 345.55px 0px;" class="animable"><polygon points="610.78 342.51 611.23 345.02 661.19 348.59 662.46 342.51 610.78 342.51" id="elu4tt4y9thz" style="transform-origin: 636.62px 345.55px 0px;" class="animable"></polygon></g></g><path d="M614.24,331.52s-21-24.27-18.71-25.15,21.05,12.57,21.05,12.57-16.08-36-12.86-38.59,20.17,31.87,20.17,31.87-2.63-50.29,0-50.87,12.28,50.29,12.28,50.29,14.33-46.49,18.42-46.49-4.39,44.73-4.39,44.73,17-28.65,19.59-24.85-12,34.79-12,34.79S679.15,302,680,304.33s-23.09,27.19-23.09,27.19Z" style="fill: rgb(69, 90, 100); transform-origin: 637.689px 296.434px 0px;" id="eln04e5x04yvr" class="animable"></path><path d="M611.31,295c.14-.06,3.88,7.94,8.34,17.88s8,18,7.81,18.11-3.88-7.94-8.34-17.88S611.16,295,611.31,295Z" style="fill: rgb(38, 50, 56); transform-origin: 619.387px 312.994px 0px;" id="elvn3cun6t73l" class="animable"></path><path d="M628.31,299.44c.16,0,.78,7.05,1.39,15.76s1,15.79.81,15.8-.78-7-1.39-15.76S628.15,299.45,628.31,299.44Z" style="fill: rgb(38, 50, 56); transform-origin: 629.414px 315.221px 0px;" id="elm1drub72k9" class="animable"></path><path d="M651.77,276.92a2.37,2.37,0,0,1-.13.57c-.12.43-.27,1-.46,1.6-.44,1.47-1,3.45-1.76,5.86-1.48,4.95-3.48,11.79-5.51,19.41S640.2,318.9,639,323.93c-.57,2.45-1,4.47-1.39,6-.16.65-.29,1.18-.4,1.61a2.41,2.41,0,0,1-.18.56,3.59,3.59,0,0,1,.07-.58c.08-.44.17-1,.29-1.64.26-1.42.67-3.47,1.21-6,1.08-5,2.7-12,4.73-19.63s4.1-14.46,5.68-19.38c.79-2.46,1.46-4.45,1.94-5.81.22-.63.41-1.14.56-1.56A2.46,2.46,0,0,1,651.77,276.92Z" style="fill: rgb(38, 50, 56); transform-origin: 644.4px 304.512px 0px;" id="elrfuf43841bf" class="animable"></path><path d="M661.91,302.84c.13.09-4,6.22-9.18,13.68s-9.52,13.45-9.65,13.36,4-6.22,9.18-13.69S661.78,302.75,661.91,302.84Z" style="fill: rgb(38, 50, 56); transform-origin: 652.494px 316.359px 0px;" id="elzy9e9o59ip" class="animable"></path><path d="M621.35,331a7.92,7.92,0,0,1-1.85-1.31c-1.07-.89-2.51-2.18-4-3.7a51.81,51.81,0,0,1-3.6-4.1,8.26,8.26,0,0,1-1.26-1.87c.13-.11,2.32,2.54,5.27,5.56S621.45,330.87,621.35,331Z" style="fill: rgb(38, 50, 56); transform-origin: 615.998px 325.508px 0px;" id="elhfde01zgcqt" class="animable"></path><path d="M634.13,321.36a22,22,0,0,1,.75,5,22.38,22.38,0,0,1,.17,5.05,43.9,43.9,0,0,1-.92-10.06Z" style="fill: rgb(38, 50, 56); transform-origin: 634.619px 326.381px 0px;" id="elgldhjln6elr" class="animable"></path></g><g id="freepik--Desk--inject-312" style="transform-origin: 369px 397.059px 0px;" class="animable"><path d="M713.75,382.45c0,.14-154.36.26-344.73.26s-344.77-.12-344.77-.26,154.33-.26,344.77-.26S713.75,382.3,713.75,382.45Z" style="fill: rgb(38, 50, 56); transform-origin: 369px 382.451px 0px;" id="el7s46esqe80e" class="animable"></path><path d="M507.69,411.73a22.65,22.65,0,0,1-8.47-.48,25.71,25.71,0,0,1,4.24.12A25.34,25.34,0,0,1,507.69,411.73Z" style="fill: rgb(255, 255, 255); transform-origin: 503.455px 411.568px 0px;" id="elh4thlsyd7sr" class="animable"></path></g><g id="freepik--Model--inject-312" style="transform-origin: 208.463px 340.83px 0px;" class="animable"><path d="M232.48,345.49c0,.15-6.63.26-14.82.26s-14.82-.11-14.82-.26,6.63-.26,14.82-.26S232.48,345.35,232.48,345.49Z" style="fill: rgb(38, 50, 56); transform-origin: 217.66px 345.49px 0px;" id="elepux5h6f5ac" class="animable"></path><path d="M215.85,366.06a53.72,53.72,0,0,1,4.62-5.86,55.53,55.53,0,0,1,5-5.54,53.23,53.23,0,0,1-4.62,5.87A52.08,52.08,0,0,1,215.85,366.06Z" style="fill: rgb(38, 50, 56); transform-origin: 220.66px 360.359px 0px;" id="el341zwor3byo" class="animable"></path><path d="M211.69,366.52c-.11-.09,2.89-3.84,6.7-8.37s7-8.13,7.1-8-2.89,3.84-6.7,8.37S211.8,366.61,211.69,366.52Z" style="fill: rgb(38, 50, 56); transform-origin: 218.59px 358.332px 0px;" id="elws9ss1cofe" class="animable"></path><path d="M159.58,345.49c0,.15-6.64.26-14.82.26s-14.82-.11-14.82-.26,6.63-.26,14.82-.26S159.58,345.35,159.58,345.49Z" style="fill: rgb(38, 50, 56); transform-origin: 144.76px 345.49px 0px;" id="elvzcmr35mn4f" class="animable"></path><rect x="245.85" y="322.86" width="37.03" height="59.41" style="fill: rgb(245, 245, 245); transform-origin: 264.365px 352.565px 0px;" id="elalci1cp3rr8" class="animable"></rect><path d="M282.89,382.27a2,2,0,0,1,0-.3c0-.21,0-.49,0-.85,0-.77,0-1.87,0-3.28,0-2.88,0-7-.07-12.27,0-10.5-.07-25.31-.12-42.71l.25.24-37,0c-.07.05.49-.49.25-.25v16.5c0,5.37,0,10.58,0,15.59,0,10,0,19.23,0,27.31l-.21-.21,27,.11,7.45.05,1.95,0,.69,0-.65,0-1.91,0-7.4.05-27.08.11h-.2v-.2c0-8.08,0-17.3,0-27.31,0-5,0-10.22,0-15.59,0-2.68,0-5.4,0-8.16v-8.34c-.23.23.32-.33.27-.27l37,0h.24v.24c-.05,17.46-.09,32.33-.12,42.87,0,5.21-.05,9.35-.07,12.21,0,1.4,0,2.48,0,3.23,0,.35,0,.62,0,.83S282.89,382.27,282.89,382.27Z" style="fill: rgb(38, 50, 56); transform-origin: 264.568px 352.422px 0px;" id="elhai42uk2k5a" class="animable"></path><rect x="75.99" y="348.43" width="37.03" height="33.84" style="fill: rgb(250, 250, 250); transform-origin: 94.505px 365.35px 0px;" id="el91enyvbeb38" class="animable"></rect><path d="M113,382.27s0-.23,0-.65,0-1.05,0-1.82c0-1.62,0-3.95-.06-6.89,0-5.93-.07-14.35-.12-24.48l.23.22-37,0,.25-.25h0v17.81c0,5.68,0,11.05,0,16L76,382l26.75.11,7.57.06,2,0h.52l.19,0h-.66l-2,0-7.51.06-26.9.11h-.22v-.23c0-5,0-10.34,0-16v-8.73c0-1.49,0-3,0-4.51v-4.57h0l.27-.27,37,0h.22v.22c0,10.18-.09,18.66-.12,24.62,0,2.92,0,5.23,0,6.84,0,.76,0,1.35,0,1.78S113,382.27,113,382.27Z" style="fill: rgb(38, 50, 56); transform-origin: 94.4844px 365.186px 0px;" id="elibi9ss6lsrl" class="animable"></path><path d="M113.33,330.61v51.66H245.85V299.44Zm45.47,46H130.94v-39H158.8Zm72.83,0H203.77v-39h27.86Z" style="fill: rgb(245, 245, 245); transform-origin: 179.59px 340.855px 0px;" id="eltqo1sv7q8cj" class="animable"></path><path d="M113.33,330.61v51.66H245.85V299.44Zm45.47,46H130.94v-39H158.8Zm72.83,0H203.77v-39h27.86Z" style="fill: none; transform-origin: 179.59px 340.855px 0px;" id="el2pgu4s6p315" class="animable"></path><path d="M231.63,376.65a1.57,1.57,0,0,1,0-.2l0-.56c0-.51,0-1.23,0-2.14,0-1.9,0-4.61-.06-8,0-6.88-.07-16.6-.12-28.07l.24.23-27.86,0c-.06,0,.49-.49.26-.26h0v10.71c0,3.49,0,6.89,0,10.17,0,6.56,0,12.66,0,18.11l-.21-.21,20.21.11,5.63.05,1.49,0a3.28,3.28,0,0,1,.53,0,2.39,2.39,0,0,1-.48,0l-1.45,0-5.59.05-20.34.11h-.21v-.21c0-5.45,0-11.55,0-18.11,0-3.28,0-6.68,0-10.17V337.66h0l.26-.26,27.86,0h.24v.24c-.05,11.54-.09,21.3-.12,28.22,0,3.4-.05,6.1-.06,8q0,1.33,0,2.1l0,.53A1,1,0,0,1,231.63,376.65Z" style="fill: rgb(38, 50, 56); transform-origin: 217.852px 357.074px 0px;" id="el3zmkeauld9p" class="animable"></path><path d="M158.8,376.65a1.57,1.57,0,0,1,0-.2v-.56c0-.51,0-1.23,0-2.14,0-1.9,0-4.61-.07-8,0-6.88-.07-16.6-.11-28.07l.23.23-27.85,0c-.07,0,.49-.49.25-.26h0v10.71c0,3.49,0,6.89,0,10.17,0,6.56,0,12.66,0,18.11l-.21-.21,20.21.11,5.64.05,1.49,0a3,3,0,0,1,.52,0,2.3,2.3,0,0,1-.48,0l-1.45,0-5.59.05-20.34.11h-.21v-.21c0-5.45,0-11.55,0-18.11,0-3.28,0-6.68,0-10.17,0-1.75,0-3.52,0-5.3v-5.41h0c-.23.23.32-.32.27-.26l27.85,0H159v.24c0,11.54-.09,21.3-.12,28.22,0,3.4,0,6.1-.06,8q0,1.33,0,2.1v.53C158.81,376.6,158.81,376.65,158.8,376.65Z" style="fill: rgb(38, 50, 56); transform-origin: 144.887px 357.018px 0px;" id="elhf1f58g0xf" class="animable"></path><path d="M113.33,330.61l.62-.16,1.87-.46,7.29-1.75,27.4-6.51L245.8,299.2l.3-.07v.31c0,20.26,0,42.39,0,65.42v17.67h-.26l-132.52-.08h-.18v-.17c0-16.19.07-29.12.09-38,0-4.42,0-7.83.05-10.16,0-1.14,0-2,0-2.61s0-.88,0-.88,0,.31,0,.91,0,1.49,0,2.64c0,2.33,0,5.76,0,10.19,0,8.87,0,21.77.09,37.92l-.17-.18L245.85,382l-.26.26V364.86c0-23,0-45.16,0-65.42l.3.24L150.71,322l-27.48,6.39L115.89,330l-1.91.43Z" style="fill: rgb(38, 50, 56); transform-origin: 179.621px 340.83px 0px;" id="elnf060sp7gwl" class="animable"></path><rect x="170.68" y="342.31" width="21.06" height="39.96" style="fill: rgb(250, 250, 250); transform-origin: 181.21px 362.29px 0px;" id="el9kg9gtvoh7" class="animable"></rect><path d="M191.74,342.31s0,.05,0,.17,0,.33,0,.56c0,.52,0,1.25,0,2.17,0,2,0,4.74.07,8.23,0,7.13.07,17.13.12,28.83v.24h-.25l-21.06,0-.26-.27h0V371c0-3.64,0-7.17,0-10.54,0-6.75,0-12.9,0-18.18v-.2h.2l15.46.1,4.17.05,1.08,0a1.22,1.22,0,0,1,.35,0l-.39,0-1.11,0-4.22,0-15.34.1.2-.19c0,5.28,0,11.43,0,18.18,0,3.37,0,6.9,0,10.54v11.22h0l-.26-.25h21.06l-.24.25c.05-11.63.09-21.58.12-28.66,0-3.52,0-6.33.06-8.29,0-.95,0-1.69,0-2.23,0-.23,0-.42,0-.58A1.57,1.57,0,0,1,191.74,342.31Z" style="fill: rgb(38, 50, 56); transform-origin: 181.145px 362.295px 0px;" id="el9nsefdy3csr" class="animable"></path><path d="M143,366.06a53.72,53.72,0,0,1,4.62-5.86,55.53,55.53,0,0,1,5-5.54,53.23,53.23,0,0,1-4.62,5.87A52.08,52.08,0,0,1,143,366.06Z" style="fill: rgb(38, 50, 56); transform-origin: 147.811px 360.359px 0px;" id="elohw0of9f38" class="animable"></path><path d="M138.78,366.52c-.11-.09,2.9-3.84,6.71-8.37s7-8.13,7.1-8-2.89,3.84-6.7,8.37S138.89,366.61,138.78,366.52Z" style="fill: rgb(38, 50, 56); transform-origin: 145.686px 358.332px 0px;" id="elogozwpskl6f" class="animable"></path><path d="M304.34,352.56c.14,0,.26,6.63.26,14.81s-.12,14.8-.26,14.8-.26-6.63-.26-14.8S304.19,352.56,304.34,352.56Z" style="fill: rgb(38, 50, 56); transform-origin: 304.34px 367.365px 0px;" id="elzd1sz4vvf5" class="animable"></path><g id="elflsxystqxkv"><circle cx="304.34" cy="343.58" r="16.79" style="fill: rgb(250, 250, 250); transform-origin: 304.34px 343.58px 0px; transform: rotate(-22.26deg);" class="animable"></circle></g><path d="M321.12,343.58a24.91,24.91,0,0,0-.62-4.08,15.86,15.86,0,0,0-1.87-4.42,16.63,16.63,0,0,0-4.25-4.7A16.57,16.57,0,0,0,298.7,328a15.59,15.59,0,0,0-4.18,2.26,17.68,17.68,0,0,0-1.88,1.6A18.76,18.76,0,0,0,291,333.8a16.49,16.49,0,0,0,0,19.55,15.34,15.34,0,0,0,3.5,3.51,15.59,15.59,0,0,0,4.18,2.26,16.67,16.67,0,0,0,19.93-7.05,15.86,15.86,0,0,0,1.87-4.42,25.05,25.05,0,0,0,.62-4.07.8.8,0,0,1,0,.27l0,.8a8.33,8.33,0,0,1-.1,1.3,12.67,12.67,0,0,1-.32,1.75,16,16,0,0,1-1.82,4.52,16.9,16.9,0,0,1-11.4,8.06,17.06,17.06,0,0,1-8.94-.71,15.84,15.84,0,0,1-4.32-2.31,15.46,15.46,0,0,1-3.61-3.61,16.95,16.95,0,0,1,0-20.15,15.46,15.46,0,0,1,3.61-3.61,15.84,15.84,0,0,1,4.32-2.31,17,17,0,0,1,8.93-.71,16.89,16.89,0,0,1,11.41,8.06,16,16,0,0,1,1.82,4.52,12.67,12.67,0,0,1,.32,1.75,8.33,8.33,0,0,1,.1,1.3l0,.8A.9.9,0,0,1,321.12,343.58Z" style="fill: rgb(38, 50, 56); transform-origin: 304.197px 343.576px 0px;" id="el3dgorjsbtdc" class="animable"></path><path d="M330.66,363.65a83.63,83.63,0,0,1,.26,9.26,83.63,83.63,0,0,1-.26,9.26,83.63,83.63,0,0,1-.26-9.26A83.63,83.63,0,0,1,330.66,363.65Z" style="fill: rgb(38, 50, 56); transform-origin: 330.66px 372.91px 0px;" id="elz75xn44pxsn" class="animable"></path><circle cx="330.66" cy="358.02" r="10.5" style="fill: rgb(250, 250, 250); transform-origin: 330.66px 358.02px 0px;" id="elzib4h7b9rhm" class="animable"></circle><path d="M341.16,358a21,21,0,0,0-.42-2.54,10.46,10.46,0,0,0-3.84-5.66,10.18,10.18,0,0,0-4.34-1.9,10.41,10.41,0,0,0-5.4.46,9.79,9.79,0,0,0-2.59,1.41,9.51,9.51,0,0,0-2.16,2.18,10.21,10.21,0,0,0,0,12.11,9.72,9.72,0,0,0,2.16,2.18,9.33,9.33,0,0,0,2.59,1.4,10.28,10.28,0,0,0,9.74-1.43,10.48,10.48,0,0,0,3.84-5.67,20.29,20.29,0,0,0,.42-2.54,7.82,7.82,0,0,1-.23,2.59,10.56,10.56,0,0,1-8.29,7.94,10.59,10.59,0,0,1-5.64-.44,9.8,9.8,0,0,1-2.72-1.45,10.07,10.07,0,0,1-2.28-2.28,10.68,10.68,0,0,1,0-12.72,9.82,9.82,0,0,1,2.28-2.27,10.1,10.1,0,0,1,2.72-1.46,10.79,10.79,0,0,1,5.64-.44,10.62,10.62,0,0,1,4.49,2,10.4,10.4,0,0,1,3.8,5.9A7.83,7.83,0,0,1,341.16,358Z" style="fill: rgb(38, 50, 56); transform-origin: 330.543px 358.004px 0px;" id="elz5a3eq0bah" class="animable"></path></g><g id="freepik--Character--inject-312" style="transform-origin: 376.379px 268.148px 0px;" class="animable"><path d="M475.74,106c-2.91-6.65-11.12-8.81-18.26-10.17a17.56,17.56,0,1,0-35-1.76c3.2,6.67,4,14.28,6.23,21.37,2.37,7.53,7.29,15.22,15,16.85,4.77,1,9.69-.51,14.24-2.25,5.23-2,10.5-4.42,14.27-8.55S478,111.17,475.74,106Z" style="fill: rgb(14, 144, 142); transform-origin: 449.582px 104.424px 0px;" id="el6c456p0k597" class="animable"></path><path d="M457.45,94.94a3.85,3.85,0,0,1-.5.88A22,22,0,0,1,455.31,98a30,30,0,0,1-6.83,6,29.65,29.65,0,0,1-8.32,3.64,20.66,20.66,0,0,1-2.69.55,3.36,3.36,0,0,1-1,.08c0-.09,1.4-.32,3.6-1a32.93,32.93,0,0,0,15-9.51C456.57,96.08,457.37,94.89,457.45,94.94Z" style="fill: rgb(38, 50, 56); transform-origin: 446.959px 101.609px 0px;" id="elrp76i3k48b" class="animable"></path><path d="M444.23,77.44s.12,0,.34,0a2.41,2.41,0,0,1,.87.48A5.58,5.58,0,0,1,447,81.18a22.76,22.76,0,0,1,.34,5.3A23.17,23.17,0,0,1,446,92.83a22.82,22.82,0,0,1-6.67,9.63,17.84,17.84,0,0,1-1.62,1.23,12.84,12.84,0,0,1-1.31.81,6.47,6.47,0,0,1-1.17.57c-.06-.1,1.63-.92,3.86-2.89a24,24,0,0,0,7.8-15.74,23.61,23.61,0,0,0-.22-5.19,5.68,5.68,0,0,0-1.34-3.14A3.57,3.57,0,0,0,444.23,77.44Z" style="fill: rgb(38, 50, 56); transform-origin: 441.301px 91.2559px 0px;" id="el2dfn37trv91" class="animable"></path><path d="M440.14,126.91s.61.26,1.74.51a17.88,17.88,0,0,0,4.9.34,14.19,14.19,0,0,0,3.33-.55,15,15,0,0,0,3.49-1.67,19.79,19.79,0,0,0,6.1-6.38,22.86,22.86,0,0,0,3.06-8.33,23.41,23.41,0,0,0,.07-7.27,24.85,24.85,0,0,0-1.25-4.77,13,13,0,0,1-.66-1.69s.1.13.25.4.36.68.6,1.22a21.79,21.79,0,0,1,1.42,4.78,23.5,23.5,0,0,1-3,15.93,20,20,0,0,1-6.29,6.52,14.84,14.84,0,0,1-3.62,1.67,14.26,14.26,0,0,1-3.44.51,16.69,16.69,0,0,1-5-.51,8.44,8.44,0,0,1-1.28-.47A1.76,1.76,0,0,1,440.14,126.91Z" style="fill: rgb(38, 50, 56); transform-origin: 451.826px 112.627px 0px;" id="el2w7dmw87plu" class="animable"></path><path d="M419.64,90.61c-10.41-9.5-23.1-17.82-37.2-18.28-12.56-.41-26.36,5.6-36.17,13.44-4.84,3.87-8.78,10.29-11.33,15.93-3.48,7.74-1,16.43.68,24.74,3.36,16.66,16.44,33,23.77,34.81l72.12-10.64c5.69-11.54,10.93-25.41,6-37.28C434.11,105.25,426.11,96.52,419.64,90.61Z" style="fill: rgb(14, 144, 142); transform-origin: 386.328px 116.779px 0px;" id="el227qvbkhzwl" class="animable"></path><path d="M395.52,87.16a7.72,7.72,0,0,0-10.11-2.64l-39.8,14.32c-11.67,6.19-9.87,24.48-3.19,35.87,7.42,12.66,17,27.83,24.52,35.92,15.17,16.27,30.69,9.17,30.69,9.17s6.49,9.13,9.8,13.77c7.94,11.16,20,7.11,29.89-2.32h0a22.51,22.51,0,0,0,3.81-27.89Z" style="fill: rgb(255, 190, 157); transform-origin: 390.729px 141.965px 0px;" id="eldlmxmei1e2t" class="animable"></path><path d="M357.22,147.06a2.83,2.83,0,0,0,3.85.83,2.69,2.69,0,0,0,1-3.73,2.82,2.82,0,0,0-3.84-.84A2.71,2.71,0,0,0,357.22,147.06Z" style="fill: rgb(38, 50, 56); transform-origin: 359.646px 145.607px 0px;" id="ele8vc41r0tcg" class="animable"></path><path d="M350.85,140.27c.49.11,1.38-2.39,3.9-4.08S360,134.52,360,134c.05-.23-.62-.58-1.82-.63a7.81,7.81,0,0,0-4.47,1.36,7.42,7.42,0,0,0-2.85,3.63C350.5,139.5,350.61,140.23,350.85,140.27Z" style="fill: rgb(38, 50, 56); transform-origin: 355.316px 136.822px 0px;" id="eljbtv4lgba8i" class="animable"></path><path d="M380.59,130.44a2.82,2.82,0,0,0,3.84.84,2.7,2.7,0,0,0,1-3.73,2.82,2.82,0,0,0-3.84-.84A2.69,2.69,0,0,0,380.59,130.44Z" style="fill: rgb(38, 50, 56); transform-origin: 383.01px 128.996px 0px;" id="elxroaiv7kfcp" class="animable"></path><path d="M375.88,124.09c.49.1,1.38-2.4,3.9-4.09s5.21-1.67,5.27-2.16c.05-.23-.62-.58-1.82-.62a7.72,7.72,0,0,0-4.47,1.35,7.46,7.46,0,0,0-2.85,3.63C375.54,123.32,375.64,124,375.88,124.09Z" style="fill: rgb(38, 50, 56); transform-origin: 380.359px 120.656px 0px;" id="elbgjlig7zlad" class="animable"></path><path d="M379.32,148.88c-.09-.15-1.83.63-4.58,2-.69.36-1.38.64-1.78.28a3.89,3.89,0,0,1-.86-2.19c-.44-2-.91-4-1.39-6.17-2.06-8.74-4-15.75-4.36-15.66s1,7.24,3.08,16c.53,2.15,1,4.19,1.5,6.15A4.47,4.47,0,0,0,372.3,152a2,2,0,0,0,1.68.23,5,5,0,0,0,1.2-.59C377.82,150.08,379.41,149,379.32,148.88Z" style="fill: rgb(38, 50, 56); transform-origin: 372.809px 139.73px 0px;" id="elnyz714ielqg" class="animable"></path><path d="M397.63,179.8a55.85,55.85,0,0,0,20-23s2.56,16.82-16.83,27.4Z" style="fill: rgb(235, 153, 110); transform-origin: 407.686px 170.5px 0px;" id="elnyeiuxf4she" class="animable"></path><path d="M390.79,148a4.84,4.84,0,0,0-4.59.43A6.31,6.31,0,0,0,383,154a4,4,0,0,0,1.37,2.5c.45.28.18.17.68.24a11,11,0,0,0,5.32-.2,4.77,4.77,0,0,0,3.14-4.34A4.85,4.85,0,0,0,390.79,148Z" style="fill: rgb(235, 153, 110); transform-origin: 388.256px 152.293px 0px;" id="elu5et4b2ddg9" class="animable"></path><path d="M387.89,145.63c-.42.26,1.41,3,.38,6.5s-4.14,5.17-3.9,5.56c.07.2,1,.1,2.25-.7A8.14,8.14,0,0,0,390,152.5a7.13,7.13,0,0,0-.49-5.33C388.83,146,388.07,145.49,387.89,145.63Z" style="fill: rgb(38, 50, 56); transform-origin: 387.332px 151.691px 0px;" id="elzv4bju8zutk" class="animable"></path><path d="M368.08,117.13c.7.52,3-1.5,6.18-3.13s6.12-2.44,6.1-3.31c0-.41-.87-.78-2.28-.79a12,12,0,0,0-9.36,4.91C367.93,116,367.75,116.88,368.08,117.13Z" style="fill: rgb(14, 144, 142); transform-origin: 374.141px 113.555px 0px;" id="elfuuqfe7f7am" class="animable"></path><path d="M345.91,131c.82.28,2.16-1.48,4.22-2.91s4.1-2.21,4.11-3.08c0-.41-.68-.8-1.82-.82a7.44,7.44,0,0,0-6.71,4.83C345.37,130.07,345.52,130.82,345.91,131Z" style="fill: rgb(14, 144, 142); transform-origin: 349.881px 127.611px 0px;" id="elw6oyuqltzzd" class="animable"></path><path d="M405.74,112.56c.17-.28,7.88-10.14,14.71,0s-4.8,15-5,14.67S405.74,112.56,405.74,112.56Z" style="fill: rgb(255, 190, 157); transform-origin: 414.168px 117.619px 0px;" id="elfaj7fvdoq7" class="animable"></path><path d="M416,121.32c0-.06.26,0,.65-.06a2.16,2.16,0,0,0,1.35-.86c.81-1.12.57-3.43-.62-5.3a6.93,6.93,0,0,0-2.2-2.21,2.48,2.48,0,0,0-2.25-.47,1.1,1.1,0,0,0-.72,1.19c.06.38.26.54.22.59s-.34,0-.54-.5a1.36,1.36,0,0,1,0-.9,1.59,1.59,0,0,1,.8-.92,3,3,0,0,1,2.92.33,7.37,7.37,0,0,1,2.52,2.43c1.31,2.1,1.55,4.72.36,6.13a2.25,2.25,0,0,1-1.8.82C416.14,121.55,415.94,121.36,416,121.32Z" style="fill: rgb(235, 153, 110); transform-origin: 415.537px 116.617px 0px;" id="eltpcjelau6ce" class="animable"></path><path d="M421.61,122.41c0-.08.73.12,1.29,1.07a2.27,2.27,0,0,1,.25,1.91,2.51,2.51,0,0,1-1.84,1.46,2.49,2.49,0,0,1-2.31-.48,2.52,2.52,0,0,1-.78-1.74c0-1.13.55-1.64.58-1.58a4.8,4.8,0,0,0-.15,1.53,2.25,2.25,0,0,0,.73,1.36,2,2,0,0,0,1.78.31,2.07,2.07,0,0,0,1.46-1.07,1.93,1.93,0,0,0-.11-1.5A6.34,6.34,0,0,0,421.61,122.41Z" style="fill: rgb(38, 50, 56); transform-origin: 420.738px 124.674px 0px;" id="eludo525m8c3m" class="animable"></path><path d="M343.57,138.14c-.65-3.86.54-7.82,2.26-11.34s4-6.77,5.66-10.31a36.85,36.85,0,0,0,2-26.32c-6.74.84-12.74,5.37-16.06,11.29a30,30,0,0,0-2.93,19.76,47,47,0,0,0,8.13,18.51" style="fill: rgb(14, 144, 142); transform-origin: 344.492px 114.951px 0px;" id="elepns5bvw74e" class="animable"></path><path d="M386.67,79.69c-12.35-2-29.18,3.75-36.66,13.76,7.28,7.53,20.25,12.7,30.38,15.37s21.5,11.85,31.21-.53c.67-.86,2.18-.75,2.64-1.73a3.85,3.85,0,0,0-.09-2.69A35.16,35.16,0,0,0,386.67,79.69Z" style="fill: rgb(14, 144, 142); transform-origin: 382.227px 96.9512px 0px;" id="elkjxz3kf6yf" class="animable"></path><path d="M352.54,150.06a4.48,4.48,0,0,1-1.84,1.11,8.42,8.42,0,0,1-5.85-.2,12.91,12.91,0,0,1-6.32-5.94,30.69,30.69,0,0,1-2.16-4.7,52.91,52.91,0,0,1-1.72-5.25,53.9,53.9,0,0,1-1.59-19.25A49.93,49.93,0,0,1,334,110l.4-1.55a1.76,1.76,0,0,1,.18-.53,16,16,0,0,1-.34,2.12c-.21,1.37-.55,3.33-.72,5.79a56.65,56.65,0,0,0,1.75,19c.51,1.81,1,3.56,1.69,5.21a31.64,31.64,0,0,0,2.09,4.62,12.55,12.55,0,0,0,6,5.82,8.43,8.43,0,0,0,5.61.38A11.27,11.27,0,0,0,352.54,150.06Z" style="fill: rgb(14, 144, 142); transform-origin: 342.67px 129.762px 0px;" id="elb9s0rc03t7t" class="animable"></path><path d="M433.94,108.52c-.07,0-.78-1-2.35-2.49a31.86,31.86,0,0,0-7.52-5.39,45,45,0,0,0-13-4.25,86.65,86.65,0,0,0-16.84-.88c-6,.16-11.73.52-17,.49a75.18,75.18,0,0,1-13.83-1.19,43.09,43.09,0,0,1-9-2.69c-1-.45-1.78-.82-2.29-1.1a4.79,4.79,0,0,1-.76-.45c0-.06,1.1.52,3.15,1.33a46.84,46.84,0,0,0,8.94,2.48,79.08,79.08,0,0,0,13.75,1.05c5.2,0,10.92-.38,16.94-.55a85.49,85.49,0,0,1,17,1,44.16,44.16,0,0,1,13.15,4.42,30.34,30.34,0,0,1,7.49,5.61,23.14,23.14,0,0,1,1.65,1.93A5.09,5.09,0,0,1,433.94,108.52Z" style="fill: rgb(255, 255, 255); transform-origin: 392.646px 99.543px 0px;" id="el81l8b5jvk06" class="animable"></path><path d="M411.29,87.28a2.71,2.71,0,0,1-.63,0L408.87,87l-1.29-.19c-.47-.06-1-.08-1.54-.12-1.11-.07-2.37-.22-3.77-.19l-2.19,0c-.76,0-1.55.07-2.38.11-1.64,0-3.39.24-5.23.4-3.68.41-7.71,1-11.94,1.65s-8.29,1.17-12,1.47c-1.86.1-3.62.25-5.28.21-.83,0-1.63,0-2.39,0l-2.21-.15a35.05,35.05,0,0,1-3.77-.46c-.55-.09-1.07-.16-1.54-.25l-1.27-.33-1.75-.47a2.5,2.5,0,0,1-.6-.2,2.62,2.62,0,0,1,.63.08l1.77.36,1.27.27,1.54.2a36.8,36.8,0,0,0,3.75.36l2.19.11c.76,0,1.56,0,2.38,0,1.64,0,3.39-.15,5.24-.26,3.68-.33,7.72-.88,11.95-1.52s8.27-1.22,12-1.6c1.86-.15,3.62-.33,5.27-.35.83,0,1.63-.07,2.4-.07l2.21.06c1.41,0,2.67.18,3.78.28.56.06,1.08.1,1.55.17l1.29.25,1.77.37A2.4,2.4,0,0,1,411.29,87.28Z" style="fill: rgb(38, 50, 56); transform-origin: 380.504px 88.2031px 0px;" id="elzi3bbpr4e9" class="animable"></path><path d="M342.14,135.21a10.47,10.47,0,0,1-.82-1.72,15.35,15.35,0,0,1-.8-2.1,29,29,0,0,1-.87-2.85l-.41-1.68c-.14-.59-.22-1.21-.33-1.85a40.51,40.51,0,0,1-.49-4.12,43.2,43.2,0,0,1,2.9-18.64A40.59,40.59,0,0,1,343,98.47c.3-.57.56-1.14.87-1.66l.91-1.47a28.78,28.78,0,0,1,1.69-2.46,18.05,18.05,0,0,1,1.4-1.75,12.17,12.17,0,0,1,1.31-1.39c.11.09-1.77,2.08-4,5.83l-.87,1.48c-.29.51-.54,1.08-.83,1.65-.61,1.14-1.09,2.42-1.65,3.75a50.23,50.23,0,0,0-2.4,9.06,48.81,48.81,0,0,0-.46,9.35,40.37,40.37,0,0,0,.43,4.07c.1.63.16,1.25.29,1.84s.25,1.13.37,1.67C341.09,132.69,342.28,135.16,342.14,135.21Z" style="fill: rgb(255, 255, 255); transform-origin: 343.756px 112.475px 0px;" id="elqz9jwysr91e" class="animable"></path><path d="M421.91,92.75s.16,0,.44.19.7.35,1.21.65a35,35,0,0,1,4.19,2.8,28.36,28.36,0,0,1,5.25,5.34,30,30,0,0,1,2.37,3.75,36.67,36.67,0,0,1,1.93,4.35,52.17,52.17,0,0,1,2.52,8.81,27.06,27.06,0,0,1,.33,7.48,23.7,23.7,0,0,1-1,4.93c-.18.57-.37,1-.48,1.29s-.19.44-.21.43a35.54,35.54,0,0,0,1.36-6.69,27.4,27.4,0,0,0-.43-7.36,54.42,54.42,0,0,0-2.54-8.71,37.28,37.28,0,0,0-1.89-4.29,30.25,30.25,0,0,0-2.31-3.7,29.22,29.22,0,0,0-5.09-5.34,45.29,45.29,0,0,0-4.06-2.92A14.7,14.7,0,0,1,421.91,92.75Z" style="fill: rgb(38, 50, 56); transform-origin: 431.09px 112.76px 0px;" id="el8nyac4xx7yc" class="animable"></path><path d="M381.91,279.26l41-2-18.13-82s-20.11,14-20.47,35.29C384,249.94,381.91,279.26,381.91,279.26Z" style="fill: rgb(14, 144, 142); transform-origin: 402.41px 237.262px 0px;" id="eljdd8j5405x" class="animable"></path><path d="M526,231c-7.65-28.11-27-58.18-27-58.18s-10.76-25.18-38.13-21.44c0,0-11,2-16.05,8.25l-43.53,38.74,3.11,55.58c.49,8.83,3.77,18.72,10.17,24.82a54.42,54.42,0,0,0,26.35,13.86c-2.68,3.78-1.56,9.3,1.46,12.81s7.48,5.42,11.88,6.85c29.13,9.5,62.43,2.88,87.28-15.05C541.56,297.19,533.2,257.32,526,231Z" style="fill: rgb(14, 144, 142); transform-origin: 471.414px 233.811px 0px;" id="ellfikoxnae3h" class="animable"></path><path d="M507.46,279.26a3,3,0,0,1-.68.14l-1.94.27-7.14,1c-6,.87-14.32,2.22-23.43,4.05s-17.28,3.83-23.17,5.36l-7,1.85-1.9.5a3.15,3.15,0,0,1-.67.14,2.79,2.79,0,0,1,.64-.24l1.87-.59c1.63-.51,4-1.2,6.93-2,5.87-1.63,14-3.67,23.16-5.52s17.44-3.12,23.48-3.9c3-.39,5.47-.68,7.17-.84l1.95-.18A5.92,5.92,0,0,1,507.46,279.26Z" style="fill: rgb(38, 50, 56); transform-origin: 474.496px 285.916px 0px;" id="ele601nyalh8j" class="animable"></path><path d="M404.74,195.27c.73,4.33,3,13.43,4.35,18.95.48,1.9,3.05,4.15,4.71,5.2,2.64,1.67,5.65.62,8-1.42,6.81-5.85,11.07-14,14.1-25.86,2.25-8.79,8.92-32.56,8.92-32.56L424,176.34Z" style="fill: rgb(255, 190, 157); transform-origin: 424.779px 189.914px 0px;" id="elj56byamdg9o" class="animable"></path><path d="M403.32,236.22a1.51,1.51,0,0,1,.05.5c0,.39,0,.86.05,1.44,0,1.33.07,3.11.11,5.28a86.25,86.25,0,0,0,1.89,17.26,39.84,39.84,0,0,0,7.25,15.61,30.37,30.37,0,0,0,3.61,3.82c.93.82,1.47,1.25,1.45,1.29a2.13,2.13,0,0,1-.43-.27c-.26-.2-.68-.46-1.16-.86a26.56,26.56,0,0,1-3.76-3.75,38.73,38.73,0,0,1-7.47-15.72,79.42,79.42,0,0,1-1.75-17.37c0-2.24,0-4,.06-5.29,0-.58,0-1,0-1.44A2.8,2.8,0,0,1,403.32,236.22Z" style="fill: rgb(38, 50, 56); transform-origin: 410.443px 258.82px 0px;" id="elayb5jj69nkb" class="animable"></path><path d="M404.4,253.57a3.07,3.07,0,0,1-.44.45,6.41,6.41,0,0,1-1.52,1,7.64,7.64,0,0,1-2.79.7,10.39,10.39,0,0,1-3.77-.49,12.83,12.83,0,0,1-4.1-2.14,16.08,16.08,0,0,1-3.53-3.94,19.36,19.36,0,0,1-2.39-5.34,8.83,8.83,0,0,1-.26-3.13,6.06,6.06,0,0,1,1.21-3,4.38,4.38,0,0,1,2.8-1.69,4.93,4.93,0,0,1,3.1.65,5.9,5.9,0,0,1,2.19,2.13,6.5,6.5,0,0,1,.87,2.79,10.71,10.71,0,0,1-1,5.21,11.37,11.37,0,0,1-2.6,3.82,5.81,5.81,0,0,1-1.71,1.12,9.75,9.75,0,0,1-1.73.5,14.72,14.72,0,0,1-2.85.31,7.12,7.12,0,0,1-1.8-.19,1.58,1.58,0,0,1-.59-.23s.21.07.61.13a8.15,8.15,0,0,0,1.78.08,14.81,14.81,0,0,0,2.79-.38,11,11,0,0,0,1.67-.52,5.53,5.53,0,0,0,1.58-1.09,11.33,11.33,0,0,0,2.46-3.72,10.44,10.44,0,0,0,.9-5,6.09,6.09,0,0,0-.81-2.58,5.46,5.46,0,0,0-2-1.94,4.43,4.43,0,0,0-2.78-.59,3.86,3.86,0,0,0-2.46,1.51,5.52,5.52,0,0,0-1.11,2.76,8.54,8.54,0,0,0,.24,2.94,19.08,19.08,0,0,0,2.31,5.21,15.59,15.59,0,0,0,3.39,3.86,12.6,12.6,0,0,0,3.94,2.13,10.29,10.29,0,0,0,3.65.55,7.6,7.6,0,0,0,2.71-.6A10.18,10.18,0,0,0,404.4,253.57Z" style="fill: rgb(38, 50, 56); transform-origin: 393.943px 245.844px 0px;" id="ell6mynm5pqeh" class="animable"></path><path d="M448.58,258.13s0,.08-.15.2-.3.32-.49.54a22.24,22.24,0,0,1-2.05,1.92,23.07,23.07,0,0,1-9.32,4.34,22.79,22.79,0,0,1-15-1.7,15.34,15.34,0,0,1-6.76-6,8.93,8.93,0,0,1-1.22-4.69,8.2,8.2,0,0,1,1.61-4.73,6.09,6.09,0,0,1,4.34-2.43,7.49,7.49,0,0,1,4.68,1.28,8.55,8.55,0,0,1,3.05,3.55,12.16,12.16,0,0,1,1.08,4.35,18.62,18.62,0,0,1-1.44,8.07,21.28,21.28,0,0,1-12.4,11.7c-.57.22-1.11.33-1.56.46a8.93,8.93,0,0,1-1.16.24l-.72.11-.25,0a35.71,35.71,0,0,0,3.62-1,20.92,20.92,0,0,0,8.34-5.74,20.64,20.64,0,0,0,3.73-5.93,18.12,18.12,0,0,0,1.36-7.87,11.4,11.4,0,0,0-1.05-4.16,7.94,7.94,0,0,0-2.88-3.34,7,7,0,0,0-4.35-1.2,5.55,5.55,0,0,0-4,2.24,7.65,7.65,0,0,0-1.51,4.42,8.42,8.42,0,0,0,1.14,4.43,15,15,0,0,0,6.53,5.8,22.57,22.57,0,0,0,14.74,1.77,23.35,23.35,0,0,0,9.26-4.14,26.64,26.64,0,0,0,2.1-1.83l.53-.51Z" style="fill: rgb(38, 50, 56); transform-origin: 429.699px 260.451px 0px;" id="eldpe0bzaey9g" class="animable"></path><path d="M529.72,247.34a12.87,12.87,0,0,1-2.4,2.53,19.35,19.35,0,0,1-22.27,2,18.25,18.25,0,0,1-6.18-5.63,10.92,10.92,0,0,1-1.68-4.15,8.6,8.6,0,0,1,.46-4.59,6.44,6.44,0,0,1,3.08-3.45,6,6,0,0,1,4.47-.39,5.05,5.05,0,0,1,3.1,3,8.08,8.08,0,0,1,.39,4.14,12.62,12.62,0,0,1-1.12,3.76,33.11,33.11,0,0,1-1.72,3.25,23.75,23.75,0,0,1-4.11,5.17,16.58,16.58,0,0,1-8.43,4.27,14.84,14.84,0,0,1-2.58.26h-.67a.6.6,0,0,1-.23,0c0-.07,1.25,0,3.44-.45a16.72,16.72,0,0,0,8.22-4.34,23.92,23.92,0,0,0,4-5.12,18.8,18.8,0,0,0,2.74-6.86,7.79,7.79,0,0,0-.38-3.88,4.51,4.51,0,0,0-2.8-2.71,5.53,5.53,0,0,0-4.08.37,5.88,5.88,0,0,0-2.83,3.17,8.18,8.18,0,0,0-.43,4.32,10.52,10.52,0,0,0,1.6,3.95,17.87,17.87,0,0,0,6,5.49,19.4,19.4,0,0,0,13.45,2.24,19.9,19.9,0,0,0,8.45-4A32.69,32.69,0,0,0,529.72,247.34Z" style="fill: rgb(38, 50, 56); transform-origin: 509.773px 245.459px 0px;" id="elcuncxi8bxe" class="animable"></path><g id="el4okjguvz0z5"><g style="opacity: 0.3; transform-origin: 472.135px 285.826px 0px;" class="animable"><path d="M441.57,292.57c21,.17,42.33-4.07,61.13-13.49C482.28,282.4,461.1,285.78,441.57,292.57Z" id="elyfnzh66r2kn" style="transform-origin: 472.135px 285.826px 0px;" class="animable"></path></g></g><path d="M442.4,305.39s-11.1,16.39-15.28,28.93-1.77,48.56-1.77,48.56l127.85-.43a88.38,88.38,0,0,0,7.28-46.94c-3.25-26.46-18.92-41.79-18.92-41.79Z" style="fill: rgb(38, 50, 56); transform-origin: 492.879px 338.299px 0px;" id="elmzrsdr4p15" class="animable"></path><path d="M471.85,382.72a8.23,8.23,0,0,1,.42-1.57c.3-1,.78-2.44,1.39-4.21,1.22-3.53,3.12-8.35,5.36-13.59s4.2-10,5.53-13.52l1.56-4.14a10.34,10.34,0,0,1,.63-1.5,9.45,9.45,0,0,1-.44,1.57c-.31,1-.79,2.43-1.41,4.2-1.24,3.53-3.14,8.34-5.39,13.59s-4.19,10-5.5,13.52c-.62,1.69-1.14,3.08-1.54,4.15A10,10,0,0,1,471.85,382.72Z" style="fill: rgb(69, 90, 100); transform-origin: 479.295px 363.455px 0px;" id="elnuxu1iqckwr" class="animable"></path><path d="M561.16,337s-.12.11-.37.26a12.57,12.57,0,0,1-1.11.61,21.85,21.85,0,0,1-4.37,1.64,23.92,23.92,0,0,1-26.81-10.79,22.76,22.76,0,0,1-2-4.21c-.19-.52-.29-.94-.37-1.22s-.11-.42-.09-.43a35.34,35.34,0,0,0,2.79,5.67,24.24,24.24,0,0,0,26.41,10.63A34.59,34.59,0,0,0,561.16,337Z" style="fill: rgb(69, 90, 100); transform-origin: 543.598px 331.607px 0px;" id="el1tsrr0cvg46i" class="animable"></path><path d="M234.32,398c-2.89,1.92-45.67,55.77-45.67,55.77L274.22,462Zm-2.89,23.51L244.75,445l-27.31-3.24Z" style="fill: rgb(14, 144, 142); transform-origin: 231.434px 430px 0px;" id="elwx47k5jys4m" class="animable"></path><path d="M223,372s-8.64,10.27,7.74,18.33,217.85,73.11,220.12,73.11c4.56,0,13.13,3.48,20.48-7.11l92.77-58.2s-18.77,10.51-25,9.82c-12.24-1.36-138.27-25.54-138.27-25.54s-8.48-2.69-7.42-10.41Z" style="fill: rgb(69, 90, 100); transform-origin: 392.416px 417.994px 0px;" id="el3at9vlol8b" class="animable"></path><path d="M231.43,383.92l152.9-2h0l72.79,14.28,40,7.77,20.69,4,5.24,1,2.63.48,2.53.42c-.09.17.11-.38.33.4l-.09.09-.08.06-.14.1-.29.18-.56.37-1.14.72L524,413.18,519.38,416,455.2,455.83l-.1.06-.11,0L231.43,383.92l223.71,71.45-.21,0,64.18-39.8,4.58-2.86L526,411.3l1.14-.72.56-.36.28-.19.13-.09.06,0c.08,0-.13-.1.11.13s.2.43.12.29a10.25,10.25,0,0,1-1.44-.18l-1.33-.23-2.63-.48-5.24-1-20.69-4-40-7.79-72.78-14.34h0Z" style="fill: rgb(38, 50, 56); transform-origin: 379.984px 418.906px 0px;" id="elevelsa03mwf" class="animable"></path><path d="M268.07,389.67,384.75,388h.05l114.57,23.19.67.13-.59.35c-1.6.95-3.34,2-5.09,3L452.15,439.5l-.1.05-.1,0L379.14,418.9c-11-3.14-21.54-5.87-31.32-8.39l-27.1-6.89c-16.5-4.17-29.68-7.57-38.72-10-4.52-1.23-8-2.18-10.37-2.89l-3.56-1,14,3.75c9,2.4,22.24,5.76,38.75,9.88l27.12,6.83c9.78,2.51,20.29,5.21,31.34,8.34L452.09,439l-.2,0,42.21-24.85,5.09-3,.08.48L384.71,388.42h.05Z" style="fill: rgb(255, 255, 255); transform-origin: 384.055px 413.775px 0px;" id="elcj1wi2q6b6" class="animable"></path><path d="M504.7,410.68c.08.12-11.71,7.4-26.33,16.26s-26.53,15.94-26.6,15.82,11.71-7.41,26.33-16.27S504.63,410.55,504.7,410.68Z" style="fill: rgb(255, 255, 255); transform-origin: 478.234px 426.721px 0px;" id="eljh3nxijg0dm" class="animable"></path><path d="M452.28,446.58a15.75,15.75,0,0,1-.35-4,16,16,0,0,1,.18-4,15.5,15.5,0,0,1,.34,4A15.76,15.76,0,0,1,452.28,446.58Z" style="fill: rgb(255, 255, 255); transform-origin: 452.193px 442.578px 0px;" id="el9z5kmzr5x8p" class="animable"></path><path d="M483.17,426.76c-.11.09-.67-.4-1.24-1.1s-.95-1.35-.84-1.44.67.41,1.24,1.11S483.28,426.67,483.17,426.76Z" style="fill: rgb(255, 255, 255); transform-origin: 482.131px 425.49px 0px;" id="elnv6agr1ba3n" class="animable"></path><path d="M349.09,388.94a1.48,1.48,0,0,1,.33.15l.95.48,3.61,1.92,13.24,7.12,43.61,23.68,17.29,9.44h-.25c12.34-7.85,23.25-14.2,31.08-18.57,3.91-2.19,7.05-3.89,9.21-5l2.49-1.3.65-.33.22-.1s-.06.06-.2.14l-.63.36-2.45,1.38-9.13,5.16c-7.79,4.45-18.66,10.85-31,18.72l-.13.08-.13-.07-17.3-9.42-43.53-23.81-13.17-7.27-3.56-2-.93-.54Z" style="fill: rgb(255, 255, 255); transform-origin: 410.305px 410.605px 0px;" id="el6pl9gwqjrww" class="animable"></path><polygon points="302.58 404.26 316.19 410.3 436.64 401.89 427.06 395.75 302.58 404.26" style="fill: rgb(14, 144, 142); transform-origin: 369.61px 403.025px 0px;" id="elyn02wl7p4t" class="animable"></polygon><path d="M320,406.92a29.75,29.75,0,0,1-7.08-3.37,29.75,29.75,0,0,1,7.08,3.37Z" style="fill: rgb(38, 50, 56); transform-origin: 316.461px 405.236px 0px;" id="elfl8hs906h7i" class="animable"></path><path d="M338,405.66a29.75,29.75,0,0,1-7.08-3.37,29.75,29.75,0,0,1,7.08,3.37Z" style="fill: rgb(38, 50, 56); transform-origin: 334.461px 403.975px 0px;" id="el7a6n4uiii5u" class="animable"></path><path d="M356.08,404.39a15.13,15.13,0,0,1-3.65-1.45A14.91,14.91,0,0,1,349,401a29.75,29.75,0,0,1,7.08,3.37Z" style="fill: rgb(38, 50, 56); transform-origin: 352.539px 402.695px 0px;" id="eltnp1h8ei4qr" class="animable"></path><path d="M374.12,403.13a29.75,29.75,0,0,1-7.08-3.37,14.94,14.94,0,0,1,3.66,1.45A14.7,14.7,0,0,1,374.12,403.13Z" style="fill: rgb(38, 50, 56); transform-origin: 370.58px 401.445px 0px;" id="el9w1xuo2jfcv" class="animable"></path><path d="M392.17,401.87a28.81,28.81,0,0,1-7.08-3.38,14.93,14.93,0,0,1,3.65,1.46A15.19,15.19,0,0,1,392.17,401.87Z" style="fill: rgb(38, 50, 56); transform-origin: 388.631px 400.18px 0px;" id="elfysy2wsj3fh" class="animable"></path><path d="M410.21,400.6a15,15,0,0,1-3.65-1.45,14.64,14.64,0,0,1-3.43-1.92,29.75,29.75,0,0,1,7.08,3.37Z" style="fill: rgb(38, 50, 56); transform-origin: 406.67px 398.916px 0px;" id="el5natr9btqqi" class="animable"></path><path d="M326,404.7c-.06.13-1-.17-2-.67s-1.86-1-1.8-1.14,1,.17,2,.67S326,404.57,326,404.7Z" style="fill: rgb(38, 50, 56); transform-origin: 324.098px 403.793px 0px;" id="elbuax4a3a3z4" class="animable"></path><path d="M344.1,403.51c-.06.13-1-.17-2-.67s-1.86-1-1.8-1.14,1,.17,2,.67S344.16,403.38,344.1,403.51Z" style="fill: rgb(38, 50, 56); transform-origin: 342.201px 402.604px 0px;" id="el3txm4unxv1r" class="animable"></path><path d="M362.24,402.32c-.06.13-1-.17-2-.67s-1.85-1-1.79-1.14,1,.17,2,.67S362.3,402.19,362.24,402.32Z" style="fill: rgb(38, 50, 56); transform-origin: 360.344px 401.414px 0px;" id="el5lyzirdzxym" class="animable"></path><path d="M380.38,401.12c-.06.13-1-.17-2-.67s-1.85-1-1.79-1.14,1,.17,2,.67S380.44,401,380.38,401.12Z" style="fill: rgb(38, 50, 56); transform-origin: 378.484px 400.215px 0px;" id="elh2i4t5rnq3v" class="animable"></path><path d="M398.52,399.93c-.06.13-1-.17-2-.67s-1.85-1-1.79-1.14,1,.17,2,.67S398.58,399.8,398.52,399.93Z" style="fill: rgb(38, 50, 56); transform-origin: 396.625px 399.023px 0px;" id="elumetfhwfcso" class="animable"></path><path d="M416.66,398.74c-.06.13-1-.17-2-.67s-1.85-1-1.79-1.14,1,.17,2,.67S416.72,398.61,416.66,398.74Z" style="fill: rgb(38, 50, 56); transform-origin: 414.766px 397.832px 0px;" id="elqidppodu12" class="animable"></path><path d="M492.3,178.83c-.91-9.13-19.42-30.6-41.33-17.82-.83.49-4.29,12.14-4,38.3s5.27,88.94,5.27,88.94l-12.93,91.9,23.88,4.45s23-79,24.21-90.88C487.41,293.72,493.21,188,492.3,178.83ZM488,288.46Zm-.54,5.25v0Zm0-.11,0-.24Zm0-.3v0Zm0-.42v0Zm.07-.69,0-.35Zm.1-.95,0-.22Zm0-.35,0-.24Zm.08-.79,0-.21Zm0-.21,0-.3Zm0-.38c0-.34.06-.59.08-.76C487.9,288.94,487.88,289.2,487.84,289.51Zm.11-1v0Z" style="fill: rgb(255, 190, 157); transform-origin: 465.854px 270.828px 0px;" id="elu0upegs6yka" class="animable"></path><path d="M441.45,230.56l52.27-.25s4.67-43.5,1.82-53C492.06,165.78,472,150,454.38,157.05S441.45,230.56,441.45,230.56Z" style="fill: rgb(14, 144, 142); transform-origin: 468.672px 192.93px 0px;" id="elk2muai46ikf" class="animable"></path><path d="M448.81,164.52s-.05.1-.18.28l-.57.79c-.22.36-.47.83-.78,1.38s-.57,1.22-.84,2a64.41,64.41,0,0,0-3,13.68c-1.57,11.86-2.19,28.68-1.72,47.91l-.25-.24,19.81-.1,32.45-.14-.23.23c.6-16,1.11-29.58,1.47-39.23.2-4.79.35-8.6.46-11.23.06-1.29.11-2.29.14-3,0-.32,0-.57.05-.77a.9.9,0,0,1,0-.26,1,1,0,0,1,0,.26v.77c0,.71,0,1.71-.07,3-.08,2.64-.19,6.45-.33,11.24-.31,9.65-.76,23.27-1.28,39.24v.23h-.23l-32.46.18-19.81.09h-.25v-.25c-.45-19.27.24-36.1,1.9-48a62.49,62.49,0,0,1,3.17-13.69c.29-.77.64-1.42.89-2s.59-1,.82-1.37l.61-.77C448.73,164.6,448.81,164.52,448.81,164.52Z" style="fill: rgb(38, 50, 56); transform-origin: 468.342px 197.674px 0px;" id="el5mcrsju2u0k" class="animable"></path><path d="M463.2,384.6l-23.43-5.24s-3.2,5.71-3.38,5.64-21.82,7.75-23.15,8.41c-.78.4-2.33,2.82-3.48,4.75a8.18,8.18,0,0,0-1.07,5.12h0s-1.72,3.49-1.32,4c1,1.19,3.08,1.1,5.48-.16,2.77-1.47,9.39-9,9.39-9s-5.87,10.46-6.06,12.65.26,3.16,3.24,2.13c3.31-1.15,11.07-13,11.07-13s-.48,5.55-1.9,8.39-.93,5.71,2.2,5.42,6.8-9.73,6.8-9.73l2.47-2.14a17.59,17.59,0,0,1-1.73,5.11c-1.19,2.14-4.88,6.6-.71,6.41s10.2-10.26,10.2-10.26,9.41-6.43,11.55-10.15A62.28,62.28,0,0,0,463.2,384.6Z" style="fill: rgb(255, 190, 157); transform-origin: 435.254px 396.545px 0px;" id="eljzqypfjpfno" class="animable"></path><path d="M429.54,389.67a4.77,4.77,0,0,1-1,.4c-.63.22-1.56.53-2.71.9s-2.56.75-4.1,1.13a13.28,13.28,0,0,0-4.65,2c-3,2.12-4.76,5.05-6.41,6.81a25.54,25.54,0,0,0-1.73,2.24,5.46,5.46,0,0,1-.59.87,3,3,0,0,1,.42-1,17.74,17.74,0,0,1,1.62-2.38c.76-.94,1.62-2.06,2.62-3.33a19.57,19.57,0,0,1,3.76-3.66,13.28,13.28,0,0,1,4.85-2c1.56-.37,2.95-.67,4.11-1s2.1-.58,2.76-.75A3.84,3.84,0,0,1,429.54,389.67Z" style="fill: rgb(235, 153, 110); transform-origin: 418.945px 396.846px 0px;" id="elhs67drh40ce" class="animable"></path><path d="M426.61,394.86c.09.15-1.85,1.19-3.7,3.07a23.09,23.09,0,0,0-2.81,3.87,7.81,7.81,0,0,1,2.44-4.23A9.8,9.8,0,0,1,426.61,394.86Z" style="fill: rgb(235, 153, 110); transform-origin: 423.357px 398.33px 0px;" id="els7bazf3y42i" class="animable"></path><path d="M435.21,396.38c0,.08-.46.15-1.14.43a5.46,5.46,0,0,0-3.36,4.27c-.11.73-.07,1.2-.16,1.22s-.23-.46-.21-1.25a5,5,0,0,1,3.61-4.58C434.72,396.26,435.21,396.32,435.21,396.38Z" style="fill: rgb(235, 153, 110); transform-origin: 432.775px 399.313px 0px;" id="el5sr9uqv8rp2" class="animable"></path><path d="M443.23,398.76c0,.07-.24.3-.7.63a11.37,11.37,0,0,0-1.65,1.39,4.33,4.33,0,0,0-1,1.82c-.13.52-.1.88-.17.89s-.24-.33-.19-.95a3.62,3.62,0,0,1,1-2.11,6.51,6.51,0,0,1,1.84-1.35C442.85,398.82,443.19,398.7,443.23,398.76Z" style="fill: rgb(235, 153, 110); transform-origin: 441.371px 401.117px 0px;" id="eluj39ghkmxme" class="animable"></path><path d="M494,200.39a27.14,27.14,0,0,1-4.21,1.87,38.82,38.82,0,0,1-12.37,2.18,37.82,37.82,0,0,1-18.06-4.26,23.11,23.11,0,0,1-4.49-3.05,14.35,14.35,0,0,1-3.5-4.48,10.73,10.73,0,0,1-1-5.8,8.12,8.12,0,0,1,2.83-5.33,9.83,9.83,0,0,1,5.68-2.09,10.67,10.67,0,0,1,3,.23,9.42,9.42,0,0,1,2.77,1,8.7,8.7,0,0,1,2.29,1.78,9.44,9.44,0,0,1,1.64,2.31,10.14,10.14,0,0,1,1,2.61,10.75,10.75,0,0,1,.3,2.7,11.62,11.62,0,0,1-1.15,5,13.6,13.6,0,0,1-2.93,3.92,17.9,17.9,0,0,1-7.64,4.14,21.91,21.91,0,0,1-7.15.61,27.45,27.45,0,0,1-5.34-.93,31.11,31.11,0,0,1-3.25-1.08c-.37-.14-.64-.27-.82-.35a1.16,1.16,0,0,1-.27-.14,1.14,1.14,0,0,1,.29.09l.84.3c.73.26,1.82.62,3.26,1a29,29,0,0,0,5.31.83,22,22,0,0,0,7-.68,17.63,17.63,0,0,0,7.44-4.1,13.32,13.32,0,0,0,2.81-3.8,11.16,11.16,0,0,0,1.08-4.86,10.39,10.39,0,0,0-.3-2.58,9.6,9.6,0,0,0-.92-2.49,9.32,9.32,0,0,0-1.57-2.2,8.27,8.27,0,0,0-2.17-1.67,9.23,9.23,0,0,0-2.63-1,10.05,10.05,0,0,0-2.85-.21,9.33,9.33,0,0,0-5.38,2,7.6,7.6,0,0,0-2.65,5,10.2,10.2,0,0,0,1,5.51c1.65,3.4,4.73,5.69,7.76,7.33a37.86,37.86,0,0,0,17.83,4.31,40,40,0,0,0,12.3-2c1.4-.49,2.47-.9,3.18-1.23l.82-.35Z" style="fill: rgb(38, 50, 56); transform-origin: 467.664px 191.926px 0px;" id="el7o5v96mmwo3" class="animable"></path><path d="M416.85,280.76l-3.37-3-29,1.39c0,7.9.68,37.43.68,37.43l-51.05,46.89,3,22.34s65.15-33.44,72.76-47.43S416.85,280.76,416.85,280.76Z" style="fill: rgb(255, 190, 157); transform-origin: 375.486px 331.785px 0px;" id="elsu8ybqh3wih" class="animable"></path><path d="M400.27,331.35c-.09,0-.3-1.27-1.08-3.2a18.38,18.38,0,0,0-11.42-10.71c-2-.65-3.28-.78-3.26-.87a3,3,0,0,1,.91,0,14.55,14.55,0,0,1,2.46.49A17.47,17.47,0,0,1,399.54,328a15.44,15.44,0,0,1,.65,2.41A3.18,3.18,0,0,1,400.27,331.35Z" style="fill: rgb(235, 153, 110); transform-origin: 392.395px 323.943px 0px;" id="elsuh8vryjvxd" class="animable"></path><path d="M337.12,363.75s-3.32-2.07-5-2.24-6.34-.81-6.34-.81h-11.1a6,6,0,0,0-4,1.51c-2.38,2.11-6.36,5.79-6.48,6.87a5.4,5.4,0,0,0,1.19,3.26s-1.9,3.5-1.8,5.83a4.93,4.93,0,0,0,2.69,4.28,18.12,18.12,0,0,0,1,5.17l0,.06a4.56,4.56,0,0,0,4.08,2.76c5.82.15,18.6.39,21.23-.13,3.42-.69,15.76-12.14,15.76-12.14Z" style="fill: rgb(255, 190, 157); transform-origin: 325.969px 375.664px 0px;" id="eloj1bj5ng959" class="animable"></path><path d="M305.5,381.83a31.27,31.27,0,0,0,9.64,5.73,17.15,17.15,0,0,0,11.07.26,4.94,4.94,0,0,0,3.26-2.64,3.68,3.68,0,0,0-2-4.32,6.07,6.07,0,0,0-5,.17" style="fill: rgb(255, 190, 157); transform-origin: 317.551px 384.508px 0px;" id="elchkpqs44a2o" class="animable"></path><path d="M322.41,381a1.31,1.31,0,0,1,.33-.19,5.72,5.72,0,0,1,1-.37,5.43,5.43,0,0,1,4,.35,4.23,4.23,0,0,1,1.86,2.15,3.6,3.6,0,0,1,.22,1.61,3.27,3.27,0,0,1-.67,1.61,6.18,6.18,0,0,1-3,1.92,15.21,15.21,0,0,1-3.74.73,18.73,18.73,0,0,1-7.24-1,25.4,25.4,0,0,1-5.35-2.62,34,34,0,0,1-3.24-2.37,6.63,6.63,0,0,1-1.08-1,10.84,10.84,0,0,1,1.2.84c.77.55,1.87,1.35,3.31,2.21a27.2,27.2,0,0,0,5.31,2.49,18.87,18.87,0,0,0,7.05.95,14.61,14.61,0,0,0,3.62-.7,5.68,5.68,0,0,0,2.81-1.73,2.8,2.8,0,0,0,.42-2.77,3.86,3.86,0,0,0-1.63-2,5.47,5.47,0,0,0-3.77-.48C322.91,380.85,322.43,381.08,322.41,381Z" style="fill: rgb(235, 153, 110); transform-origin: 317.668px 384.527px 0px;" id="elilw2hp54tk" class="animable"></path><path d="M317.54,365.13a11.35,11.35,0,0,1-3,5.3q3.06,3,5.85,6.31a10.17,10.17,0,0,1,1.84,2.73,3.65,3.65,0,0,1-.11,3.18A3.72,3.72,0,0,1,318,384a11.07,11.07,0,0,1-3.94-2.39c-3.46-2.84-5.66-5.93-8.66-9.25" style="fill: rgb(255, 190, 157); transform-origin: 313.971px 374.65px 0px;" id="ellh6sj4d4zk" class="animable"></path><path d="M305.37,372.34s.13.09.34.29.49.51.87.92l3.08,3.47a40.06,40.06,0,0,0,4.95,4.73,9.7,9.7,0,0,0,3.4,2,3.59,3.59,0,0,0,3.71-1,2.8,2.8,0,0,0,.52-2,4.54,4.54,0,0,0-.64-1.95,18.78,18.78,0,0,0-2.55-3.15l-4.66-5.12-.13-.14.13-.12a11.73,11.73,0,0,0,2.54-3.64c.42-1,.57-1.54.61-1.53a1.56,1.56,0,0,1-.06.43,11.64,11.64,0,0,1-.37,1.18,11.12,11.12,0,0,1-2.47,3.82v-.26l4.77,5.06a18.7,18.7,0,0,1,2.64,3.22,5.15,5.15,0,0,1,.71,2.17,3.39,3.39,0,0,1-.62,2.3,3.49,3.49,0,0,1-2,1.22,4.62,4.62,0,0,1-2.25-.06,10.13,10.13,0,0,1-3.58-2.09,37.82,37.82,0,0,1-4.92-4.86c-1.27-1.5-2.26-2.73-3-3.58A15.84,15.84,0,0,1,305.37,372.34Z" style="fill: rgb(235, 153, 110); transform-origin: 314.074px 374.727px 0px;" id="eluonv46gl8n" class="animable"></path><polygon points="320.78 349.8 319.6 391.51 321.14 397.89 323.29 391.24 325.02 349.86 320.78 349.8" style="fill: rgb(38, 50, 56); transform-origin: 322.31px 373.845px 0px;" id="elrk1rtem8eee" class="animable"></polygon><path d="M328.75,362.58c-.44.11-5.54-1-7.21,1.22s-4.77,11.43-4.77,11.43,1.44,3.77,3.88,2.78,7.11-5.89,7.11-5.89l4.32-.11" style="fill: rgb(255, 190, 157); transform-origin: 324.424px 370.287px 0px;" id="elwsltxi3jd2h" class="animable"></path><path d="M332.08,372a5.65,5.65,0,0,1-1.13.12l-3.19.16.11-.05a46.58,46.58,0,0,1-4.63,4.36,14.73,14.73,0,0,1-1.57,1.14,5.77,5.77,0,0,1-.92.49,2.45,2.45,0,0,1-1.12.18,3,3,0,0,1-1.93-1.14,7,7,0,0,1-1.17-1.95l0-.08,0-.09.18-.52c.89-2.55,1.78-4.95,2.7-7.1a29.93,29.93,0,0,1,1.44-3,4.75,4.75,0,0,1,.92-1.26,3.88,3.88,0,0,1,1.28-.68,10.45,10.45,0,0,1,4.2-.22l1.12.15a2,2,0,0,1,.39.06,5.29,5.29,0,0,1-1.53,0,11.27,11.27,0,0,0-4.06.37,3.51,3.51,0,0,0-1.13.63,4.76,4.76,0,0,0-.82,1.17c-.48.89-.92,1.91-1.37,3-.88,2.14-1.77,4.54-2.65,7.08l-.17.51v-.17a6.62,6.62,0,0,0,1.08,1.79,2.51,2.51,0,0,0,1.59,1,2.82,2.82,0,0,0,1.73-.58,17.81,17.81,0,0,0,1.55-1.09,55.49,55.49,0,0,0,4.68-4.23l.05-.05h3.25A5.66,5.66,0,0,1,332.08,372Z" style="fill: rgb(235, 153, 110); transform-origin: 324.305px 370.324px 0px;" id="eles25qjzdvvp" class="animable"></path><path d="M323,343.93h0a1.36,1.36,0,0,0-1.38,1.33l-.12,5.92a1.37,1.37,0,0,0,1.33,1.38h0a1.35,1.35,0,0,0,1.38-1.33l.12-5.92A1.36,1.36,0,0,0,323,343.93Z" style="fill: rgb(38, 50, 56); transform-origin: 322.914px 348.244px 0px;" id="elhau8lghdwom" class="animable"></path><path d="M318.6,359.75s.08,0,.2.16l-.12,0c0-.81.11-3.79.4-7.34.09-1,.18-2,.26-2.94a12.85,12.85,0,0,1,.36-2.43,1.55,1.55,0,0,1,.61-.81,1.25,1.25,0,0,1,.75-.18c.44.05.56.32.53.32s-.19-.14-.54-.12a1.14,1.14,0,0,0-1,.9,15.82,15.82,0,0,0-.23,2.36c-.07.93-.14,1.91-.22,2.95-.29,3.54-.61,6.51-.79,7.3l0,.17-.07-.13C318.61,359.84,318.58,359.76,318.6,359.75Z" style="fill: rgb(38, 50, 56); transform-origin: 320.094px 353.148px 0px;" id="el26rjdtwmizs" class="animable"></path><path d="M321.17,399.88c-.14,0-.26-.75-.26-1.68s.12-1.69.26-1.69.26.75.26,1.69S321.32,399.88,321.17,399.88Z" style="fill: rgb(38, 50, 56); transform-origin: 321.17px 398.195px 0px;" id="ellh6ryudnkcf" class="animable"></path></g><g id="freepik--Plan--inject-312" style="transform-origin: 198.71px 214.639px 0px;" class="animable"><rect x="111.17" y="161.62" width="175.08" height="110.58" style="fill: rgb(69, 90, 100); transform-origin: 198.71px 216.91px 0px;" id="el9wemhuvel88" class="animable"></rect><path d="M174.24,231.69c-.15,0-.19-12.7-.11-28.37s.28-28.36.42-28.36.19,12.7.11,28.37S174.38,231.69,174.24,231.69Z" style="fill: rgb(250, 250, 250); transform-origin: 174.395px 203.326px 0px;" id="elljv6zv6a3p" class="animable"></path><path d="M221.61,260.89c-.14,0-.22-8.06-.16-18s.22-18,.36-18,.21,8.06.16,18S221.75,260.89,221.61,260.89Z" style="fill: rgb(250, 250, 250); transform-origin: 221.707px 242.891px 0px;" id="eludnxegj2769" class="animable"></path><path d="M269.92,239.06a2.12,2.12,0,0,1,0,.4c0,.31,0,.7,0,1.19,0,1.09,0,2.6,0,4.5,0,3.92,0,9.43,0,16v.22h-.23l-20.39-.08-30-.24-9.1-.13-2.48-.07a8.38,8.38,0,0,1-.86-.05,4.46,4.46,0,0,1,.86-.05l2.48,0,9.11,0,30,.09,20.39.15-.23.22c.07-6.57.14-12.08.18-16,0-1.9.07-3.41.09-4.5,0-.49,0-.88,0-1.19A2.59,2.59,0,0,1,269.92,239.06Z" style="fill: rgb(250, 250, 250); transform-origin: 238.395px 250.215px 0px;" id="elpvti10ogn1c" class="animable"></path><path d="M188.62,260.7c0,.15-5.42.23-12.1.2s-12.09-.19-12.09-.33,5.41-.23,12.09-.19S188.62,260.56,188.62,260.7Z" style="fill: rgb(250, 250, 250); transform-origin: 176.525px 260.639px 0px;" id="el200j2bsn9ko" class="animable"></path><path d="M165.48,260.58l-.74,0-2.17,0-8.41,0H122.64v-.17c.06-22.21.14-52.36.24-86.62v-.25h.25l40.7.3,105.54.86h.2v.2c.13,19.73.24,35.84.31,47,0,5.58.05,9.93.06,12.9v3.37c0,.76,0,1.15,0,1.15s0-.39,0-1.15,0-1.9-.06-3.37c0-3-.09-7.32-.17-12.9-.11-11.19-.28-27.3-.49-47l.2.2-105.53-.74-40.7-.32.25-.25c-.15,34.27-.29,64.41-.39,86.62l-.18-.18,31.35.16,8.41.07,2.17,0Z" style="fill: rgb(250, 250, 250); transform-origin: 196.291px 217.059px 0px;" id="eler3f82h0r4h" class="animable"></path><path d="M229.34,224.81a15.4,15.4,0,0,1,.15,2.58c0,1.62,0,3.89,0,6.49l-.26-.26a15.06,15.06,0,0,0,2.58-.42,8.83,8.83,0,0,0,3.86-2.08,8.55,8.55,0,0,0,2-3,17.51,17.51,0,0,0,.89-3.28,2.41,2.41,0,0,1,0,.93,9.3,9.3,0,0,1-.56,2.49,8.78,8.78,0,0,1-2.05,3.19,9.07,9.07,0,0,1-4.07,2.24,14.42,14.42,0,0,1-2.69.42l-.27,0v-.29c0-2.6.07-4.86.12-6.48A15.61,15.61,0,0,1,229.34,224.81Z" style="fill: rgb(250, 250, 250); transform-origin: 233.764px 229.459px 0px;" id="elcukxtaxw31" class="animable"></path><path d="M229.43,224.81a.25.25,0,1,1-.5,0,.25.25,0,0,1,.25-.26A.26.26,0,0,1,229.43,224.81Z" style="fill: rgb(250, 250, 250); transform-origin: 229.18px 224.805px 0px;" id="elgt93ixln25j" class="animable"></path><path d="M232.85,224.83c0,.14-.26.26-.58.26s-.56-.12-.56-.27.25-.26.57-.25S232.85,224.69,232.85,224.83Z" style="fill: rgb(250, 250, 250); transform-origin: 232.281px 224.83px 0px;" id="eludtqyxrcc6" class="animable"></path><path d="M236.26,224.85c0,.14-.26.26-.57.26s-.57-.12-.57-.27.26-.26.57-.26S236.26,224.7,236.26,224.85Z" style="fill: rgb(250, 250, 250); transform-origin: 235.691px 224.844px 0px;" id="elg3864cvkcvo" class="animable"></path><path d="M239,224.86a.25.25,0,1,1-.25-.26A.26.26,0,0,1,239,224.86Z" style="fill: rgb(250, 250, 250); transform-origin: 238.75px 224.852px 0px;" id="el547xfxrenzo" class="animable"></path><path d="M180.4,224.68a15.47,15.47,0,0,1-.15-2.59c0-1.61-.05-3.88-.05-6.48v-.29l.27,0a14.43,14.43,0,0,1,2.68.45,9.06,9.06,0,0,1,4,2.28,8.76,8.76,0,0,1,2,3.22,9.43,9.43,0,0,1,.53,2.49,2.54,2.54,0,0,1,0,.93,18.18,18.18,0,0,0-.85-3.29,8.82,8.82,0,0,0-2-3,9,9,0,0,0-3.85-2.12,14.91,14.91,0,0,0-2.57-.45l.27-.25c0,2.6-.08,4.87-.13,6.48A14.41,14.41,0,0,1,180.4,224.68Z" style="fill: rgb(250, 250, 250); transform-origin: 184.961px 220.006px 0px;" id="elhacgf706sek" class="animable"></path><path d="M180.49,224.68a.24.24,0,0,1-.25.25.25.25,0,0,1-.25-.26.26.26,0,0,1,.25-.26A.26.26,0,0,1,180.49,224.68Z" style="fill: rgb(250, 250, 250); transform-origin: 180.238px 224.67px 0px;" id="el5cwgmwko5hg" class="animable"></path><path d="M183.91,224.69c0,.15-.26.26-.57.26s-.57-.12-.57-.26.26-.26.57-.26S183.91,224.55,183.91,224.69Z" style="fill: rgb(250, 250, 250); transform-origin: 183.34px 224.689px 0px;" id="elb72bnrxndum" class="animable"></path><path d="M187.32,224.71c0,.15-.25.26-.57.26s-.57-.12-.57-.26.26-.26.58-.26S187.32,224.57,187.32,224.71Z" style="fill: rgb(250, 250, 250); transform-origin: 186.75px 224.709px 0px;" id="ell250j1hz7t" class="animable"></path><path d="M190.1,224.73a.25.25,0,1,1-.5,0,.25.25,0,0,1,.25-.26A.26.26,0,0,1,190.1,224.73Z" style="fill: rgb(250, 250, 250); transform-origin: 189.852px 224.725px 0px;" id="elpfpqzeoqveg" class="animable"></path><path d="M165.2,212.22a15.27,15.27,0,0,1-.15-2.58c0-1.62-.05-3.88-.05-6.48l.27.25a15.17,15.17,0,0,0-2.59.42,8.83,8.83,0,0,0-3.86,2.08,8.64,8.64,0,0,0-2,3,16.91,16.91,0,0,0-.88,3.28,2.26,2.26,0,0,1,0-.93,9.26,9.26,0,0,1,.57-2.48,8.77,8.77,0,0,1,2-3.2,9,9,0,0,1,4.07-2.23,15.49,15.49,0,0,1,2.69-.43l.27,0v.29c0,2.6-.08,4.86-.13,6.48A14.22,14.22,0,0,1,165.2,212.22Z" style="fill: rgb(250, 250, 250); transform-origin: 160.715px 207.57px 0px;" id="elz2x9dwbqw8s" class="animable"></path><path d="M165.11,212.22a.26.26,0,0,1,.25-.26.26.26,0,0,1,.25.26.25.25,0,1,1-.5,0Z" style="fill: rgb(250, 250, 250); transform-origin: 165.359px 212.215px 0px;" id="el1wsxzy42h5z" class="animable"></path><path d="M161.7,212.2c0-.14.25-.26.57-.25s.57.12.57.26-.26.26-.58.26S161.7,212.35,161.7,212.2Z" style="fill: rgb(250, 250, 250); transform-origin: 162.27px 212.209px 0px;" id="el9xgf7qjsyff" class="animable"></path><path d="M158.28,212.18c0-.14.26-.25.57-.25s.57.12.57.26-.26.26-.57.26S158.28,212.33,158.28,212.18Z" style="fill: rgb(250, 250, 250); transform-origin: 158.852px 212.189px 0px;" id="elip61rrmkjmo" class="animable"></path><path d="M155.5,212.17a.26.26,0,0,1,.26-.26.26.26,0,0,1,0,.52A.26.26,0,0,1,155.5,212.17Z" style="fill: rgb(250, 250, 250); transform-origin: 155.76px 212.17px 0px;" id="elokspdo7ubd" class="animable"></path><path d="M150.12,235a15.27,15.27,0,0,1-2.58.15c-1.62,0-3.88.05-6.48.05h-.29l0-.27a15.51,15.51,0,0,1,.46-2.68,9,9,0,0,1,2.28-4,8.64,8.64,0,0,1,3.21-2,9.13,9.13,0,0,1,2.49-.54,2.48,2.48,0,0,1,.93,0,18.4,18.4,0,0,0-3.29.85,8.78,8.78,0,0,0-3,2,9,9,0,0,0-2.12,3.85,15,15,0,0,0-.45,2.58l-.25-.27c2.6,0,4.86.07,6.48.12A15.46,15.46,0,0,1,150.12,235Z" style="fill: rgb(250, 250, 250); transform-origin: 145.455px 230.434px 0px;" id="el2huuxg3nnnb" class="animable"></path><path d="M150.12,234.9a.25.25,0,0,1,.26.25.26.26,0,1,1-.26-.25Z" style="fill: rgb(250, 250, 250); transform-origin: 150.119px 235.16px 0px;" id="elaovh9wmtvdl" class="animable"></path><path d="M150.14,231.48c.15,0,.26.26.26.57s-.12.57-.26.57-.26-.25-.26-.57S150,231.48,150.14,231.48Z" style="fill: rgb(250, 250, 250); transform-origin: 150.139px 232.051px 0px;" id="eltv70fyjrm7" class="animable"></path><path d="M150.16,228.07c.14,0,.26.25.26.57s-.12.57-.27.57-.25-.26-.25-.57S150,228.07,150.16,228.07Z" style="fill: rgb(250, 250, 250); transform-origin: 150.16px 228.641px 0px;" id="el4ke52ntugd8" class="animable"></path><path d="M150.18,225.29a.26.26,0,0,1,.26.25.27.27,0,0,1-.27.25.26.26,0,0,1-.26-.25A.27.27,0,0,1,150.18,225.29Z" style="fill: rgb(250, 250, 250); transform-origin: 150.176px 225.539px 0px;" id="elafc1t049xub" class="animable"></path><path d="M165.18,240.45a15.47,15.47,0,0,1,.15,2.59c0,1.61,0,3.88,0,6.48v.28l-.27,0a14.57,14.57,0,0,1-2.68-.45,9.06,9.06,0,0,1-4-2.28,8.59,8.59,0,0,1-2-3.22,9.13,9.13,0,0,1-.54-2.49,2.13,2.13,0,0,1,0-.93,16.6,16.6,0,0,0,.84,3.29,8.46,8.46,0,0,0,5.85,5.13,15,15,0,0,0,2.58.45l-.27.25c0-2.6.07-4.87.12-6.48A15.68,15.68,0,0,1,165.18,240.45Z" style="fill: rgb(250, 250, 250); transform-origin: 160.561px 245.115px 0px;" id="els9edgwptxf" class="animable"></path><path d="M165.09,240.45a.26.26,0,0,1,.25-.26.26.26,0,0,1,.25.27.24.24,0,0,1-.25.25A.25.25,0,0,1,165.09,240.45Z" style="fill: rgb(250, 250, 250); transform-origin: 165.34px 240.451px 0px;" id="el7s0dfkf3ar3" class="animable"></path><path d="M161.68,240.43c0-.14.25-.25.57-.25s.57.12.56.26-.25.26-.57.26S161.67,240.58,161.68,240.43Z" style="fill: rgb(250, 250, 250); transform-origin: 162.244px 240.439px 0px;" id="elzx48qjsbhfj" class="animable"></path><path d="M158.26,240.42c0-.15.26-.26.57-.26s.57.12.57.26-.26.26-.57.26S158.26,240.56,158.26,240.42Z" style="fill: rgb(250, 250, 250); transform-origin: 158.83px 240.42px 0px;" id="el3r2xlw5qm8t" class="animable"></path><path d="M155.48,240.4a.26.26,0,0,1,.25-.26.26.26,0,0,1,.25.26.25.25,0,0,1-.25.26A.26.26,0,0,1,155.48,240.4Z" style="fill: rgb(250, 250, 250); transform-origin: 155.73px 240.4px 0px;" id="eld9d9gflsxo8" class="animable"></path><path d="M188.38,260.7a13,13,0,0,1-.15-2.58c0-1.62-.06-3.88-.06-6.48v-.29l.27,0a15.84,15.84,0,0,1,2.71.46,9.06,9.06,0,0,1,4,2.28,8.56,8.56,0,0,1,2,3.21,8.76,8.76,0,0,1,.54,2.49c0,.6,0,.94,0,.93a16.47,16.47,0,0,0-.85-3.29,8.77,8.77,0,0,0-2-3,9,9,0,0,0-3.86-2.12,15.24,15.24,0,0,0-2.6-.45l.27-.25c0,2.6-.07,4.87-.13,6.48A15,15,0,0,1,188.38,260.7Z" style="fill: rgb(250, 250, 250); transform-origin: 192.932px 256.035px 0px;" id="elyx133mpvzn" class="animable"></path><path d="M207.11,260.81a15.47,15.47,0,0,1-.15-2.59c0-1.61-.06-3.88-.05-6.48l.26.25a16.46,16.46,0,0,0-2.61.42,9.13,9.13,0,0,0-3.88,2.08,8.73,8.73,0,0,0-2.05,3,17.73,17.73,0,0,0-.89,3.28,2.38,2.38,0,0,1,0-.93,9,9,0,0,1,.57-2.49,8.81,8.81,0,0,1,2.06-3.19,9.19,9.19,0,0,1,4.08-2.23,14.88,14.88,0,0,1,2.71-.42l.27,0v.28c0,2.6-.07,4.87-.12,6.49A15.61,15.61,0,0,1,207.11,260.81Z" style="fill: rgb(250, 250, 250); transform-origin: 202.563px 256.16px 0px;" id="ela1qy38kcnlr" class="animable"></path><path d="M188.46,260.7a.25.25,0,0,1-.25.26.26.26,0,0,1-.25-.26.26.26,0,0,1,.25-.26A.26.26,0,0,1,188.46,260.7Z" style="fill: rgb(250, 250, 250); transform-origin: 188.211px 260.701px 0px;" id="elvbgkj1ku5k" class="animable"></path><path d="M191.3,260.72c0,.14-.21.26-.47.26s-.48-.12-.47-.27.21-.26.47-.25S191.3,260.58,191.3,260.72Z" style="fill: rgb(250, 250, 250); transform-origin: 190.83px 260.721px 0px;" id="el8zgd4gxebuo" class="animable"></path><path d="M194.14,260.74c0,.14-.21.25-.47.25s-.47-.12-.47-.26.21-.26.47-.26S194.14,260.59,194.14,260.74Z" style="fill: rgb(250, 250, 250); transform-origin: 193.67px 260.729px 0px;" id="ely8y2cohsrp" class="animable"></path><path d="M197,260.75c0,.14-.21.26-.47.26s-.47-.12-.47-.26.21-.26.47-.26S197,260.61,197,260.75Z" style="fill: rgb(250, 250, 250); transform-origin: 196.529px 260.75px 0px;" id="elbbwioonytbn" class="animable"></path><path d="M199.83,260.77c0,.14-.22.26-.48.25s-.47-.11-.47-.26.21-.26.47-.26S199.83,260.62,199.83,260.77Z" style="fill: rgb(250, 250, 250); transform-origin: 199.354px 260.76px 0px;" id="elrh11vpb2bt" class="animable"></path><path d="M202.67,260.78c0,.15-.22.26-.48.26s-.47-.12-.47-.26.21-.26.48-.26S202.67,260.64,202.67,260.78Z" style="fill: rgb(250, 250, 250); transform-origin: 202.195px 260.779px 0px;" id="elptw8gt7nf7a" class="animable"></path><path d="M205.51,260.8c0,.14-.22.26-.48.26s-.47-.12-.47-.27.21-.26.48-.26S205.51,260.65,205.51,260.8Z" style="fill: rgb(250, 250, 250); transform-origin: 205.035px 260.795px 0px;" id="el4qks8nzi7t2" class="animable"></path><path d="M207.9,260.81a.25.25,0,1,1-.25-.26A.26.26,0,0,1,207.9,260.81Z" style="fill: rgb(250, 250, 250); transform-origin: 207.648px 260.801px 0px;" id="elcotfrupafke" class="animable"></path><path d="M189.43,224.73c0-.15,8.94-.22,19.95-.15s20,.22,20,.37-8.93.21-20,.15S189.43,224.87,189.43,224.73Z" style="fill: rgb(250, 250, 250); transform-origin: 209.404px 224.838px 0px;" id="elnyl8r6mh2fb" class="animable"></path><path d="M238.38,225c0-.15,6.94-.23,15.48-.18s15.48.2,15.48.35-6.93.22-15.48.17S238.38,225.14,238.38,225Z" style="fill: rgb(250, 250, 250); transform-origin: 253.859px 225.08px 0px;" id="elrwmms0nmpxk" class="animable"></path><path d="M174.28,224.64a9.27,9.27,0,0,1,3.05-.24,8.94,8.94,0,0,1,3,.28,9.32,9.32,0,0,1-3,.24A8.94,8.94,0,0,1,174.28,224.64Z" style="fill: rgb(250, 250, 250); transform-origin: 177.305px 224.658px 0px;" id="elmqfcv67nntm" class="animable"></path><path d="M165.09,212.39a21.55,21.55,0,0,1,4.63-.23,19.83,19.83,0,0,1,4.62.29,21.49,21.49,0,0,1-4.62.23A20,20,0,0,1,165.09,212.39Z" style="fill: rgb(250, 250, 250); transform-origin: 169.715px 212.42px 0px;" id="el65bmyhvblak" class="animable"></path><path d="M121.82,212.16c0-.15,7.66-.22,17.11-.17s17.11.21,17.1.35-7.65.22-17.11.17S121.82,212.3,121.82,212.16Z" style="fill: rgb(250, 250, 250); transform-origin: 138.926px 212.248px 0px;" id="eladj0yul4g1c" class="animable"></path><path d="M164.93,240.46a15.66,15.66,0,0,1,2.59-.13c1.64,0,3.95-.06,6.67-.06h.24v.24c0,1.75,0,3.66,0,5.66,0,4.12-.07,7.85-.14,10.54,0,1.27-.07,2.33-.1,3.2a4.47,4.47,0,0,1-.11,1.17,6.17,6.17,0,0,1-.09-1.17c0-.87,0-1.94-.07-3.2,0-2.7,0-6.43,0-10.54,0-2,0-3.91,0-5.66l.24.24c-2.72,0-5-.08-6.67-.13A17.42,17.42,0,0,1,164.93,240.46Z" style="fill: rgb(250, 250, 250); transform-origin: 169.68px 250.674px 0px;" id="els1cg71ojy2h" class="animable"></path><path d="M145.72,260.47a4.78,4.78,0,0,1-.09-1.19c0-.87,0-1.95-.07-3.23,0-2.73,0-6.5,0-10.66,0-1.78,0-3.47.05-5v-.25h.24c2.94,0,5.45.08,7.23.13a17.7,17.7,0,0,1,2.82.17,20.52,20.52,0,0,1-2.83.13c-1.77,0-4.29.06-7.22.06l.25-.25c0,1.57,0,3.27,0,5,0,4.16-.07,7.93-.13,10.66,0,1.28-.07,2.36-.1,3.23A5.18,5.18,0,0,1,145.72,260.47Z" style="fill: rgb(250, 250, 250); transform-origin: 150.729px 250.305px 0px;" id="elbwb0956rgot" class="animable"></path><path d="M150.12,235a6.94,6.94,0,0,1,.25,2.69,7.05,7.05,0,0,1-.28,2.69,14.32,14.32,0,0,1,0-5.38Z" style="fill: rgb(250, 250, 250); transform-origin: 150.121px 237.689px 0px;" id="elio69det5ms" class="animable"></path><path d="M150.25,212.31a45.89,45.89,0,0,1,.22,6.82,43.67,43.67,0,0,1-.3,6.82,45.89,45.89,0,0,1-.22-6.82A43.67,43.67,0,0,1,150.25,212.31Z" style="fill: rgb(250, 250, 250); transform-origin: 150.211px 219.129px 0px;" id="el99b0mawp3ti" class="animable"></path><path d="M274.69,170.56a12.49,12.49,0,0,1-2.57,2.51,13,13,0,0,1-2.91,2.11,12.82,12.82,0,0,1,2.57-2.51A13,13,0,0,1,274.69,170.56Z" style="fill: rgb(250, 250, 250); transform-origin: 271.951px 172.869px 0px;" id="eljq180ntrjn7" class="animable"></path><path d="M277.54,171.23c0,.15-35.52.26-79.33.26s-79.34-.11-79.34-.26,35.52-.26,79.34-.26S277.54,171.09,277.54,171.23Z" style="fill: rgb(250, 250, 250); transform-origin: 198.205px 171.229px 0px;" id="elbuo9338yq9w" class="animable"></path><path d="M123.73,174.24a11.72,11.72,0,0,1-2.25-2.7,12.25,12.25,0,0,1-1.83-3,11.53,11.53,0,0,1,2.25,2.69A12,12,0,0,1,123.73,174.24Z" style="fill: rgb(250, 250, 250); transform-origin: 121.689px 171.389px 0px;" id="elvpmkuygdz5g" class="animable"></path><path d="M274.18,224.83c-.15,0-.35-11.9-.46-26.58s-.08-26.59.07-26.59.34,11.9.45,26.58S274.32,224.83,274.18,224.83Z" style="fill: rgb(250, 250, 250); transform-origin: 273.98px 198.244px 0px;" id="eli9kcmenc9lp" class="animable"></path><path d="M279.28,225.05a53.13,53.13,0,0,1-10.5,0,53.13,53.13,0,0,1,10.5,0Z" style="fill: rgb(250, 250, 250); transform-origin: 274.031px 225.051px 0px;" id="el2t4nvyhcg4q" class="animable"></path><path d="M276.54,220.76a18.45,18.45,0,0,1-2.39,3.6,18.68,18.68,0,0,1-2.8,3.29,17.58,17.58,0,0,1,2.38-3.6A18.48,18.48,0,0,1,276.54,220.76Z" style="fill: rgb(250, 250, 250); transform-origin: 273.945px 224.205px 0px;" id="ela13m37wpjlh" class="animable"></path><path d="M119.06,165.78a22.64,22.64,0,0,1-3.6-5.79,11.07,11.07,0,0,1,2,2.75A10.88,10.88,0,0,1,119.06,165.78Z" style="fill: rgb(38, 50, 56); transform-origin: 117.26px 162.885px 0px;" id="elvy0lgtkmu4" class="animable"></path><path d="M116.67,158.87a1.79,1.79,0,1,1-1.78-1.79A1.78,1.78,0,0,1,116.67,158.87Z" style="fill: rgb(14, 144, 142); transform-origin: 114.881px 158.869px 0px;" id="el29nwq5ocs8s" class="animable"></path><path d="M277.41,167a11.43,11.43,0,0,1,1.33-3.14,11.21,11.21,0,0,1,1.8-2.91,11.29,11.29,0,0,1-1.34,3.14A11,11,0,0,1,277.41,167Z" style="fill: rgb(38, 50, 56); transform-origin: 278.975px 163.975px 0px;" id="elwgaftvcjy3" class="animable"></path><path d="M282.12,161.41a1.79,1.79,0,1,1,.62-2.45A1.78,1.78,0,0,1,282.12,161.41Z" style="fill: rgb(14, 144, 142); transform-origin: 281.203px 159.873px 0px;" id="el49v1pozu34p" class="animable"></path></g><defs>     <filter id="active" height="200%">         <feMorphology in="SourceAlpha" result="DILATED" operator="dilate" radius="2"></feMorphology>                <feFlood flood-color="#32DFEC" flood-opacity="1" result="PINK"></feFlood>        <feComposite in="PINK" in2="DILATED" operator="in" result="OUTLINE"></feComposite>        <feMerge>            <feMergeNode in="OUTLINE"></feMergeNode>            <feMergeNode in="SourceGraphic"></feMergeNode>        </feMerge>    </filter>    <filter id="hover" height="200%">        <feMorphology in="SourceAlpha" result="DILATED" operator="dilate" radius="2"></feMorphology>                <feFlood flood-color="#ff0000" flood-opacity="0.5" result="PINK"></feFlood>        <feComposite in="PINK" in2="DILATED" operator="in" result="OUTLINE"></feComposite>        <feMerge>            <feMergeNode in="OUTLINE"></feMergeNode>            <feMergeNode in="SourceGraphic"></feMergeNode>        </feMerge>            <feColorMatrix type="matrix" values="0   0   0   0   0                0   1   0   0   0                0   0   0   0   0                0   0   0   1   0 "></feColorMatrix>    </filter></defs></svg>
